<svg xmlns="http://www.w3.org/2000/svg" width="1100" height="1240">
<rect width="1100" height="1100" fill="#fafbfc"/>
<line x1="383.84" y1="799.833" x2="418.435" y2="809.933" stroke="rgb(255,70,40)" stroke-width="1.4" opacity="0.85"/>
<line x1="418.435" y1="809.933" x2="420.045" y2="809.572" stroke="rgb(255,70,40)" stroke-width="1.4" opacity="0.85"/>
<line x1="420.045" y1="809.572" x2="340.668" y2="809.542" stroke="rgb(255,70,40)" stroke-width="1.4" opacity="0.85"/>
<line x1="340.668" y1="809.542" x2="301.069" y2="802.118" stroke="rgb(255,70,40)" stroke-width="1.4" opacity="0.85"/>
<line x1="301.069" y1="802.118" x2="374.115" y2="852.412" stroke="rgb(255,70,40)" stroke-width="1.4" opacity="0.85"/>
<line x1="374.115" y1="852.412" x2="380.821" y2="850.866" stroke="rgb(255,70,40)" stroke-width="1.4" opacity="0.85"/>
<line x1="380.821" y1="850.866" x2="380.768" y2="860.658" stroke="rgb(255,70,40)" stroke-width="1.4" opacity="0.85"/>
<line x1="380.768" y1="860.658" x2="439.404" y2="1030.75" stroke="rgb(255,70,40)" stroke-width="1.4" opacity="0.85"/>
<line x1="439.404" y1="1030.75" x2="450.682" y2="993.327" stroke="rgb(255,70,40)" stroke-width="1.4" opacity="0.85"/>
<line x1="450.682" y1="993.327" x2="556.486" y2="875.093" stroke="rgb(255,70,40)" stroke-width="1.4" opacity="0.85"/>
<line x1="556.486" y1="875.093" x2="745.537" y2="898.372" stroke="rgb(255,70,40)" stroke-width="1.4" opacity="0.85"/>
<line x1="745.537" y1="898.372" x2="777.251" y2="883.227" stroke="rgb(255,70,40)" stroke-width="1.4" opacity="0.85"/>
<line x1="777.251" y1="883.227" x2="799.21" y2="851.451" stroke="rgb(255,70,40)" stroke-width="1.4" opacity="0.85"/>
<line x1="799.21" y1="851.451" x2="1012.64" y2="968.456" stroke="rgb(255,70,40)" stroke-width="1.4" opacity="0.85"/>
<line x1="1012.64" y1="968.456" x2="857.968" y2="1016.1" stroke="rgb(255,70,40)" stroke-width="1.4" opacity="0.85"/>
<line x1="857.968" y1="1016.1" x2="760.833" y2="1010.31" stroke="rgb(255,70,40)" stroke-width="1.4" opacity="0.85"/>
<line x1="760.833" y1="1010.31" x2="789.661" y2="881.737" stroke="rgb(255,70,40)" stroke-width="1.4" opacity="0.85"/>
<line x1="789.661" y1="881.737" x2="765.006" y2="850.976" stroke="rgb(255,70,40)" stroke-width="1.4" opacity="0.85"/>
<line x1="765.006" y1="850.976" x2="531.888" y2="679.191" stroke="rgb(255,70,40)" stroke-width="1.4" opacity="0.85"/>
<line x1="531.888" y1="679.191" x2="308.458" y2="640.542" stroke="rgb(255,70,40)" stroke-width="1.4" opacity="0.85"/>
<line x1="308.458" y1="640.542" x2="419.433" y2="610.475" stroke="rgb(255,70,40)" stroke-width="1.4" opacity="0.85"/>
<line x1="419.433" y1="610.475" x2="363.13" y2="578.739" stroke="rgb(255,70,40)" stroke-width="1.4" opacity="0.85"/>
<line x1="363.13" y1="578.739" x2="489.338" y2="521.496" stroke="rgb(255,70,40)" stroke-width="1.4" opacity="0.85"/>
<line x1="489.338" y1="521.496" x2="615.616" y2="448.207" stroke="rgb(255,70,40)" stroke-width="1.4" opacity="0.85"/>
<line x1="615.616" y1="448.207" x2="593.833" y2="555.073" stroke="rgb(255,70,40)" stroke-width="1.4" opacity="0.85"/>
<line x1="593.833" y1="555.073" x2="622.402" y2="544.209" stroke="rgb(255,70,40)" stroke-width="1.4" opacity="0.85"/>
<line x1="622.402" y1="544.209" x2="669.867" y2="608.387" stroke="rgb(255,70,40)" stroke-width="1.4" opacity="0.85"/>
<line x1="669.867" y1="608.387" x2="726.896" y2="527.053" stroke="rgb(255,70,40)" stroke-width="1.4" opacity="0.85"/>
<line x1="726.896" y1="527.053" x2="887.646" y2="408.44" stroke="rgb(255,70,40)" stroke-width="1.4" opacity="0.85"/>
<line x1="887.646" y1="408.44" x2="877.865" y2="387.034" stroke="rgb(255,70,40)" stroke-width="1.4" opacity="0.85"/>
<line x1="877.865" y1="387.034" x2="705.197" y2="233.646" stroke="rgb(255,70,40)" stroke-width="1.4" opacity="0.85"/>
<line x1="705.197" y1="233.646" x2="613.417" y2="366.127" stroke="rgb(255,70,40)" stroke-width="1.4" opacity="0.85"/>
<line x1="613.417" y1="366.127" x2="932.939" y2="490.931" stroke="rgb(255,70,40)" stroke-width="1.4" opacity="0.85"/>
<line x1="932.939" y1="490.931" x2="981.071" y2="562.822" stroke="rgb(255,70,40)" stroke-width="1.4" opacity="0.85"/>
<line x1="981.071" y1="562.822" x2="952.35" y2="614.504" stroke="rgb(255,70,40)" stroke-width="1.4" opacity="0.85"/>
<line x1="952.35" y1="614.504" x2="1022.72" y2="773.276" stroke="rgb(255,70,40)" stroke-width="1.4" opacity="0.85"/>
<line x1="1022.72" y1="773.276" x2="949.984" y2="749.788" stroke="rgb(255,70,40)" stroke-width="1.4" opacity="0.85"/>
<line x1="949.984" y1="749.788" x2="901.503" y2="800.774" stroke="rgb(255,70,40)" stroke-width="1.4" opacity="0.85"/>
<line x1="901.503" y1="800.774" x2="871.87" y2="871.69" stroke="rgb(255,70,40)" stroke-width="1.4" opacity="0.85"/>
<line x1="871.87" y1="871.69" x2="793.319" y2="686.454" stroke="rgb(255,70,40)" stroke-width="1.4" opacity="0.85"/>
<line x1="793.319" y1="686.454" x2="784.176" y2="648.237" stroke="rgb(255,70,40)" stroke-width="1.4" opacity="0.85"/>
<line x1="784.176" y1="648.237" x2="1041.07" y2="463.852" stroke="rgb(255,70,40)" stroke-width="1.4" opacity="0.85"/>
<line x1="1041.07" y1="463.852" x2="1002.41" y2="425.343" stroke="rgb(255,70,40)" stroke-width="1.4" opacity="0.85"/>
<line x1="1002.41" y1="425.343" x2="1006.93" y2="388.199" stroke="rgb(255,70,40)" stroke-width="1.4" opacity="0.85"/>
<line x1="286.159" y1="304.901" x2="280.576" y2="299.142" stroke="rgb(255,70,40)" stroke-width="1.4" opacity="0.85"/>
<line x1="280.576" y1="299.142" x2="249.874" y2="286.608" stroke="rgb(255,70,40)" stroke-width="1.4" opacity="0.85"/>
<line x1="249.874" y1="286.608" x2="214.736" y2="236.817" stroke="rgb(255,70,40)" stroke-width="1.4" opacity="0.85"/>
<line x1="214.736" y1="236.817" x2="170.553" y2="240.282" stroke="rgb(255,70,40)" stroke-width="1.4" opacity="0.85"/>
<line x1="170.553" y1="240.282" x2="231.981" y2="306.468" stroke="rgb(255,70,40)" stroke-width="1.4" opacity="0.85"/>
<line x1="231.981" y1="306.468" x2="272.21" y2="428.149" stroke="rgb(255,70,40)" stroke-width="1.4" opacity="0.85"/>
<line x1="272.21" y1="428.149" x2="134.463" y2="298.905" stroke="rgb(255,70,40)" stroke-width="1.4" opacity="0.85"/>
<line x1="134.463" y1="298.905" x2="148.258" y2="453.718" stroke="rgb(255,70,40)" stroke-width="1.4" opacity="0.85"/>
<line x1="148.258" y1="453.718" x2="120.985" y2="471.629" stroke="rgb(255,70,40)" stroke-width="1.4" opacity="0.85"/>
<line x1="120.985" y1="471.629" x2="176.293" y2="657.213" stroke="rgb(255,70,40)" stroke-width="1.4" opacity="0.85"/>
<line x1="176.293" y1="657.213" x2="81.7701" y2="676.802" stroke="rgb(255,70,40)" stroke-width="1.4" opacity="0.85"/>
<line x1="81.7701" y1="676.802" x2="58.9286" y2="853.92" stroke="rgb(255,70,40)" stroke-width="1.4" opacity="0.85"/>
<line x1="58.9286" y1="853.92" x2="214.036" y2="734.48" stroke="rgb(255,70,40)" stroke-width="1.4" opacity="0.85"/>
<line x1="214.036" y1="734.48" x2="203.453" y2="726.439" stroke="rgb(255,70,40)" stroke-width="1.4" opacity="0.85"/>
<line x1="203.453" y1="726.439" x2="165.015" y2="623.789" stroke="rgb(255,70,40)" stroke-width="1.4" opacity="0.85"/>
<line x1="165.015" y1="623.789" x2="161.088" y2="489.985" stroke="rgb(255,70,40)" stroke-width="1.4" opacity="0.85"/>
<line x1="161.088" y1="489.985" x2="185.076" y2="474.069" stroke="rgb(255,70,40)" stroke-width="1.4" opacity="0.85"/>
<line x1="185.076" y1="474.069" x2="327.503" y2="469.419" stroke="rgb(255,70,40)" stroke-width="1.4" opacity="0.85"/>
<line x1="327.503" y1="469.419" x2="353.159" y2="424.778" stroke="rgb(255,70,40)" stroke-width="1.4" opacity="0.85"/>
<line x1="353.159" y1="424.778" x2="360.389" y2="452.002" stroke="rgb(255,70,40)" stroke-width="1.4" opacity="0.85"/>
<line x1="360.389" y1="452.002" x2="411.4" y2="661.533" stroke="rgb(255,70,40)" stroke-width="1.4" opacity="0.85"/>
<line x1="411.4" y1="661.533" x2="359.679" y2="758.534" stroke="rgb(255,70,40)" stroke-width="1.4" opacity="0.85"/>
<line x1="359.679" y1="758.534" x2="360.875" y2="763.822" stroke="rgb(255,70,40)" stroke-width="1.4" opacity="0.85"/>
<line x1="360.875" y1="763.822" x2="369.032" y2="795.829" stroke="rgb(255,70,40)" stroke-width="1.4" opacity="0.85"/>
<line x1="369.032" y1="795.829" x2="343.058" y2="823.293" stroke="rgb(255,70,40)" stroke-width="1.4" opacity="0.85"/>
<line x1="343.058" y1="823.293" x2="419.352" y2="852.959" stroke="rgb(255,70,40)" stroke-width="1.4" opacity="0.85"/>
<line x1="419.352" y1="852.959" x2="371.656" y2="926.258" stroke="rgb(255,70,40)" stroke-width="1.4" opacity="0.85"/>
<line x1="371.656" y1="926.258" x2="386.497" y2="946.811" stroke="rgb(255,70,40)" stroke-width="1.4" opacity="0.85"/>
<line x1="386.497" y1="946.811" x2="297.81" y2="1002.94" stroke="rgb(255,70,40)" stroke-width="1.4" opacity="0.85"/>
<line x1="297.81" y1="1002.94" x2="176.412" y2="1031.64" stroke="rgb(255,70,40)" stroke-width="1.4" opacity="0.85"/>
<line x1="176.412" y1="1031.64" x2="176.273" y2="999.34" stroke="rgb(255,70,40)" stroke-width="1.4" opacity="0.85"/>
<line x1="176.273" y1="999.34" x2="176.982" y2="1039.48" stroke="rgb(255,70,40)" stroke-width="1.4" opacity="0.85"/>
<line x1="176.982" y1="1039.48" x2="200.248" y2="1023.77" stroke="rgb(255,70,40)" stroke-width="1.4" opacity="0.85"/>
<line x1="200.248" y1="1023.77" x2="223.886" y2="954.274" stroke="rgb(255,70,40)" stroke-width="1.4" opacity="0.85"/>
<line x1="223.886" y1="954.274" x2="222.007" y2="883.705" stroke="rgb(255,70,40)" stroke-width="1.4" opacity="0.85"/>
<line x1="222.007" y1="883.705" x2="275.174" y2="857.377" stroke="rgb(255,70,40)" stroke-width="1.4" opacity="0.85"/>
<line x1="275.174" y1="857.377" x2="153.421" y2="820.656" stroke="rgb(255,70,40)" stroke-width="1.4" opacity="0.85"/>
<line x1="153.421" y1="820.656" x2="141.304" y2="860.965" stroke="rgb(255,70,40)" stroke-width="1.4" opacity="0.85"/>
<line x1="141.304" y1="860.965" x2="158.89" y2="913.692" stroke="rgb(255,70,40)" stroke-width="1.4" opacity="0.85"/>
<line x1="158.89" y1="913.692" x2="164.1" y2="983.114" stroke="rgb(255,70,40)" stroke-width="1.4" opacity="0.85"/>
<line x1="164.1" y1="983.114" x2="145.124" y2="1028.33" stroke="rgb(255,70,40)" stroke-width="1.4" opacity="0.85"/>
<line x1="145.124" y1="1028.33" x2="141.336" y2="1041.07" stroke="rgb(255,70,40)" stroke-width="1.4" opacity="0.85"/>
<line x1="141.336" y1="1041.07" x2="107.529" y2="998.914" stroke="rgb(255,70,40)" stroke-width="1.4" opacity="0.85"/>
<line x1="107.529" y1="998.914" x2="202.288" y2="1014.81" stroke="rgb(255,70,40)" stroke-width="1.4" opacity="0.85"/>
<line x1="202.288" y1="1014.81" x2="159.2" y2="1032.93" stroke="rgb(255,70,40)" stroke-width="1.4" opacity="0.85"/>
<line x1="159.2" y1="1032.93" x2="161.206" y2="1008.96" stroke="rgb(255,70,40)" stroke-width="1.4" opacity="0.85"/>
<line x1="161.206" y1="1008.96" x2="172.776" y2="1035.63" stroke="rgb(255,70,40)" stroke-width="1.4" opacity="0.85"/>
<line x1="485.673" y1="200.248" x2="391.636" y2="194.136" stroke="rgb(255,70,40)" stroke-width="1.4" opacity="0.85"/>
<line x1="391.636" y1="194.136" x2="501.972" y2="226.716" stroke="rgb(255,70,40)" stroke-width="1.4" opacity="0.85"/>
<line x1="501.972" y1="226.716" x2="407.771" y2="197.39" stroke="rgb(255,70,40)" stroke-width="1.4" opacity="0.85"/>
<line x1="407.771" y1="197.39" x2="464.037" y2="83.8371" stroke="rgb(255,70,40)" stroke-width="1.4" opacity="0.85"/>
<circle cx="375.421" cy="254.872" r="5" fill="rgb(59,115,185)" stroke="white" stroke-width="1.2"/>
<rect x="376.895" y="137.786" width="10" height="10" fill="white" stroke="rgb(59,115,185)" stroke-width="2.2"/>
<line x1="375.421" y1="254.872" x2="381.895" y2="142.786" stroke="rgb(59,115,185)" stroke-width="0.8" stroke-dasharray="3,3" opacity="0.45"/>
<circle cx="676.683" cy="623.486" r="5" fill="rgb(56,116,187)" stroke="white" stroke-width="1.2"/>
<rect x="462.687" y="720.739" width="10" height="10" fill="white" stroke="rgb(56,116,187)" stroke-width="2.2"/>
<line x1="676.683" y1="623.486" x2="467.687" y2="725.739" stroke="rgb(56,116,187)" stroke-width="0.8" stroke-dasharray="3,3" opacity="0.45"/>
<circle cx="332.259" cy="82.9316" r="5" fill="rgb(80,110,169)" stroke="white" stroke-width="1.2"/>
<rect x="411.569" y="249.154" width="10" height="10" fill="white" stroke="rgb(80,110,169)" stroke-width="2.2"/>
<line x1="332.259" y1="82.9316" x2="416.569" y2="254.154" stroke="rgb(80,110,169)" stroke-width="0.8" stroke-dasharray="3,3" opacity="0.45"/>
<circle cx="491.795" cy="697.468" r="5" fill="rgb(72,112,175)" stroke="white" stroke-width="1.2"/>
<rect x="448.363" y="767.642" width="10" height="10" fill="white" stroke="rgb(72,112,175)" stroke-width="2.2"/>
<line x1="491.795" y1="697.468" x2="453.363" y2="772.642" stroke="rgb(72,112,175)" stroke-width="0.8" stroke-dasharray="3,3" opacity="0.45"/>
<circle cx="467.673" cy="679.403" r="5" fill="rgb(57,115,187)" stroke="white" stroke-width="1.2"/>
<rect x="447.27" y="744.084" width="10" height="10" fill="white" stroke="rgb(57,115,187)" stroke-width="2.2"/>
<line x1="467.673" y1="679.403" x2="452.27" y2="749.084" stroke="rgb(57,115,187)" stroke-width="0.8" stroke-dasharray="3,3" opacity="0.45"/>
<circle cx="238.735" cy="199.003" r="5" fill="rgb(102,105,153)" stroke="white" stroke-width="1.2"/>
<rect x="153.688" y="168.191" width="10" height="10" fill="white" stroke="rgb(102,105,153)" stroke-width="2.2"/>
<line x1="238.735" y1="199.003" x2="158.688" y2="173.191" stroke="rgb(102,105,153)" stroke-width="0.8" stroke-dasharray="3,3" opacity="0.45"/>
<circle cx="423.182" cy="751.579" r="5" fill="rgb(67,113,179)" stroke="white" stroke-width="1.2"/>
<rect x="497.509" y="705.004" width="10" height="10" fill="white" stroke="rgb(67,113,179)" stroke-width="2.2"/>
<line x1="423.182" y1="751.579" x2="502.509" y2="710.004" stroke="rgb(67,113,179)" stroke-width="0.8" stroke-dasharray="3,3" opacity="0.45"/>
<circle cx="460.515" cy="738.808" r="5" fill="rgb(65,114,180)" stroke="white" stroke-width="1.2"/>
<rect x="497.938" y="685.273" width="10" height="10" fill="white" stroke="rgb(65,114,180)" stroke-width="2.2"/>
<line x1="460.515" y1="738.808" x2="502.938" y2="690.273" stroke="rgb(65,114,180)" stroke-width="0.8" stroke-dasharray="3,3" opacity="0.45"/>
<circle cx="453.561" cy="707.752" r="5" fill="rgb(109,103,148)" stroke="white" stroke-width="1.2"/>
<rect x="464.463" y="673.98" width="10" height="10" fill="white" stroke="rgb(109,103,148)" stroke-width="2.2"/>
<line x1="453.561" y1="707.752" x2="469.463" y2="678.98" stroke="rgb(109,103,148)" stroke-width="0.8" stroke-dasharray="3,3" opacity="0.45"/>
<circle cx="164.202" cy="151.059" r="5" fill="rgb(99,106,155)" stroke="white" stroke-width="1.2"/>
<rect x="206.981" y="140.817" width="10" height="10" fill="white" stroke="rgb(99,106,155)" stroke-width="2.2"/>
<line x1="164.202" y1="151.059" x2="211.981" y2="145.817" stroke="rgb(99,106,155)" stroke-width="0.8" stroke-dasharray="3,3" opacity="0.45"/>
<circle cx="451.895" cy="735.417" r="5" fill="rgb(86,109,165)" stroke="white" stroke-width="1.2"/>
<rect x="460.133" y="679.094" width="10" height="10" fill="white" stroke="rgb(86,109,165)" stroke-width="2.2"/>
<line x1="451.895" y1="735.417" x2="465.133" y2="684.094" stroke="rgb(86,109,165)" stroke-width="0.8" stroke-dasharray="3,3" opacity="0.45"/>
<circle cx="230.023" cy="159.253" r="5" fill="rgb(85,109,166)" stroke="white" stroke-width="1.2"/>
<rect x="155.906" y="165.891" width="10" height="10" fill="white" stroke="rgb(85,109,166)" stroke-width="2.2"/>
<line x1="230.023" y1="159.253" x2="160.906" y2="170.891" stroke="rgb(85,109,166)" stroke-width="0.8" stroke-dasharray="3,3" opacity="0.45"/>
<circle cx="523.723" cy="145.775" r="5" fill="rgb(133,98,130)" stroke="white" stroke-width="1.2"/>
<rect x="789.251" y="161.22" width="10" height="10" fill="white" stroke="rgb(133,98,130)" stroke-width="2.2"/>
<line x1="523.723" y1="145.775" x2="794.251" y2="166.22" stroke="rgb(133,98,130)" stroke-width="0.8" stroke-dasharray="3,3" opacity="0.45"/>
<circle cx="172.206" cy="159.177" r="5" fill="rgb(59,115,185)" stroke="white" stroke-width="1.2"/>
<rect x="209.736" y="231.817" width="10" height="10" fill="white" stroke="rgb(59,115,185)" stroke-width="2.2"/>
<line x1="172.206" y1="159.177" x2="214.736" y2="236.817" stroke="rgb(59,115,185)" stroke-width="0.8" stroke-dasharray="3,3" opacity="0.45"/>
<circle cx="364.288" cy="807.199" r="5" fill="rgb(131,98,131)" stroke="white" stroke-width="1.2"/>
<rect x="344.192" y="840.074" width="10" height="10" fill="white" stroke="rgb(131,98,131)" stroke-width="2.2"/>
<line x1="364.288" y1="807.199" x2="349.192" y2="845.074" stroke="rgb(131,98,131)" stroke-width="0.8" stroke-dasharray="3,3" opacity="0.45"/>
<circle cx="81.9132" cy="86.9567" r="5" fill="rgb(175,88,99)" stroke="white" stroke-width="1.2"/>
<rect x="106.21" y="158.886" width="10" height="10" fill="white" stroke="rgb(175,88,99)" stroke-width="2.2"/>
<line x1="81.9132" y1="86.9567" x2="111.21" y2="163.886" stroke="rgb(175,88,99)" stroke-width="0.8" stroke-dasharray="3,3" opacity="0.45"/>
<circle cx="137.926" cy="200.368" r="5" fill="rgb(75,111,173)" stroke="white" stroke-width="1.2"/>
<rect x="173.475" y="183.322" width="10" height="10" fill="white" stroke="rgb(75,111,173)" stroke-width="2.2"/>
<line x1="137.926" y1="200.368" x2="178.475" y2="188.322" stroke="rgb(75,111,173)" stroke-width="0.8" stroke-dasharray="3,3" opacity="0.45"/>
<circle cx="234.166" cy="224.229" r="5" fill="rgb(76,111,173)" stroke="white" stroke-width="1.2"/>
<rect x="186.781" y="183.179" width="10" height="10" fill="white" stroke="rgb(76,111,173)" stroke-width="2.2"/>
<line x1="234.166" y1="224.229" x2="191.781" y2="188.179" stroke="rgb(76,111,173)" stroke-width="0.8" stroke-dasharray="3,3" opacity="0.45"/>
<circle cx="576.591" cy="58.9286" r="5" fill="rgb(158,92,111)" stroke="white" stroke-width="1.2"/>
<rect x="386.636" y="189.136" width="10" height="10" fill="white" stroke="rgb(158,92,111)" stroke-width="2.2"/>
<line x1="576.591" y1="58.9286" x2="391.636" y2="194.136" stroke="rgb(158,92,111)" stroke-width="0.8" stroke-dasharray="3,3" opacity="0.45"/>
<circle cx="420.66" cy="808.984" r="5" fill="rgb(155,93,114)" stroke="white" stroke-width="1.2"/>
<rect x="184.325" y="653.378" width="10" height="10" fill="white" stroke="rgb(155,93,114)" stroke-width="2.2"/>
<line x1="420.66" y1="808.984" x2="189.325" y2="658.378" stroke="rgb(155,93,114)" stroke-width="0.8" stroke-dasharray="3,3" opacity="0.45"/>
<circle cx="659.831" cy="155.363" r="5" fill="rgb(151,94,117)" stroke="white" stroke-width="1.2"/>
<rect x="569.213" y="222.095" width="10" height="10" fill="white" stroke="rgb(151,94,117)" stroke-width="2.2"/>
<line x1="659.831" y1="155.363" x2="574.213" y2="227.095" stroke="rgb(151,94,117)" stroke-width="0.8" stroke-dasharray="3,3" opacity="0.45"/>
<circle cx="387.869" cy="175.455" r="5" fill="rgb(116,102,142)" stroke="white" stroke-width="1.2"/>
<rect x="226.981" y="301.468" width="10" height="10" fill="white" stroke="rgb(116,102,142)" stroke-width="2.2"/>
<line x1="387.869" y1="175.455" x2="231.981" y2="306.468" stroke="rgb(116,102,142)" stroke-width="0.8" stroke-dasharray="3,3" opacity="0.45"/>
<circle cx="521.124" cy="348.367" r="5" fill="rgb(227,76,60)" stroke="white" stroke-width="1.2"/>
<rect x="463.786" y="430.106" width="10" height="10" fill="white" stroke="rgb(227,76,60)" stroke-width="2.2"/>
<line x1="521.124" y1="348.367" x2="468.786" y2="435.106" stroke="rgb(227,76,60)" stroke-width="0.8" stroke-dasharray="3,3" opacity="0.45"/>
<circle cx="296.301" cy="795.464" r="5" fill="rgb(150,94,117)" stroke="white" stroke-width="1.2"/>
<rect x="413.435" y="804.933" width="10" height="10" fill="white" stroke="rgb(150,94,117)" stroke-width="2.2"/>
<line x1="296.301" y1="795.464" x2="418.435" y2="809.933" stroke="rgb(150,94,117)" stroke-width="0.8" stroke-dasharray="3,3" opacity="0.45"/>
<circle cx="407.697" cy="803.858" r="5" fill="rgb(123,100,137)" stroke="white" stroke-width="1.2"/>
<rect x="347.07" y="839.847" width="10" height="10" fill="white" stroke="rgb(123,100,137)" stroke-width="2.2"/>
<line x1="407.697" y1="803.858" x2="352.07" y2="844.847" stroke="rgb(123,100,137)" stroke-width="0.8" stroke-dasharray="3,3" opacity="0.45"/>
<circle cx="341.688" cy="797.214" r="5" fill="rgb(152,93,116)" stroke="white" stroke-width="1.2"/>
<rect x="353.3" y="832.405" width="10" height="10" fill="white" stroke="rgb(152,93,116)" stroke-width="2.2"/>
<line x1="341.688" y1="797.214" x2="358.3" y2="837.405" stroke="rgb(152,93,116)" stroke-width="0.8" stroke-dasharray="3,3" opacity="0.45"/>
<circle cx="358.888" cy="820.652" r="5" fill="rgb(149,94,118)" stroke="white" stroke-width="1.2"/>
<rect x="369.115" y="847.412" width="10" height="10" fill="white" stroke="rgb(149,94,118)" stroke-width="2.2"/>
<line x1="358.888" y1="820.652" x2="374.115" y2="852.412" stroke="rgb(149,94,118)" stroke-width="0.8" stroke-dasharray="3,3" opacity="0.45"/>
<circle cx="312.769" cy="322.078" r="5" fill="rgb(213,79,71)" stroke="white" stroke-width="1.2"/>
<rect x="313.576" y="289.002" width="10" height="10" fill="white" stroke="rgb(213,79,71)" stroke-width="2.2"/>
<line x1="312.769" y1="322.078" x2="318.576" y2="294.002" stroke="rgb(213,79,71)" stroke-width="0.8" stroke-dasharray="3,3" opacity="0.45"/>
<circle cx="1022.72" cy="773.276" r="5" fill="rgb(65,114,180)" stroke="white" stroke-width="1.2"/>
<rect x="896.503" y="795.774" width="10" height="10" fill="white" stroke="rgb(65,114,180)" stroke-width="2.2"/>
<line x1="1022.72" y1="773.276" x2="901.503" y2="800.774" stroke="rgb(65,114,180)" stroke-width="0.8" stroke-dasharray="3,3" opacity="0.45"/>
<circle cx="141.304" cy="860.965" r="5" fill="rgb(67,113,179)" stroke="white" stroke-width="1.2"/>
<rect x="154.2" y="1027.93" width="10" height="10" fill="white" stroke="rgb(67,113,179)" stroke-width="2.2"/>
<line x1="141.304" y1="860.965" x2="159.2" y2="1032.93" stroke="rgb(67,113,179)" stroke-width="0.8" stroke-dasharray="3,3" opacity="0.45"/>
<circle cx="932.939" cy="490.931" r="5" fill="rgb(67,113,179)" stroke="white" stroke-width="1.2"/>
<rect x="976.071" y="557.822" width="10" height="10" fill="white" stroke="rgb(67,113,179)" stroke-width="2.2"/>
<line x1="932.939" y1="490.931" x2="981.071" y2="562.822" stroke="rgb(67,113,179)" stroke-width="0.8" stroke-dasharray="3,3" opacity="0.45"/>
<circle cx="209.506" cy="139.257" r="5" fill="rgb(74,111,173)" stroke="white" stroke-width="1.2"/>
<rect x="151.555" y="170.505" width="10" height="10" fill="white" stroke="rgb(74,111,173)" stroke-width="2.2"/>
<line x1="209.506" y1="139.257" x2="156.555" y2="175.505" stroke="rgb(74,111,173)" stroke-width="0.8" stroke-dasharray="3,3" opacity="0.45"/>
<circle cx="556.486" cy="875.093" r="5" fill="rgb(86,109,165)" stroke="white" stroke-width="1.2"/>
<rect x="740.537" y="893.372" width="10" height="10" fill="white" stroke="rgb(86,109,165)" stroke-width="2.2"/>
<line x1="556.486" y1="875.093" x2="745.537" y2="898.372" stroke="rgb(86,109,165)" stroke-width="0.8" stroke-dasharray="3,3" opacity="0.45"/>
<circle cx="238.735" cy="199.003" r="5" fill="rgb(90,108,162)" stroke="white" stroke-width="1.2"/>
<rect x="149.282" y="221.529" width="10" height="10" fill="white" stroke="rgb(90,108,162)" stroke-width="2.2"/>
<line x1="238.735" y1="199.003" x2="154.282" y2="226.529" stroke="rgb(90,108,162)" stroke-width="0.8" stroke-dasharray="3,3" opacity="0.45"/>
<circle cx="622.402" cy="544.209" r="5" fill="rgb(104,104,151)" stroke="white" stroke-width="1.2"/>
<rect x="721.896" y="522.053" width="10" height="10" fill="white" stroke="rgb(104,104,151)" stroke-width="2.2"/>
<line x1="622.402" y1="544.209" x2="726.896" y2="527.053" stroke="rgb(104,104,151)" stroke-width="0.8" stroke-dasharray="3,3" opacity="0.45"/>
<circle cx="887.646" cy="408.44" r="5" fill="rgb(107,104,149)" stroke="white" stroke-width="1.2"/>
<rect x="700.197" y="228.646" width="10" height="10" fill="white" stroke="rgb(107,104,149)" stroke-width="2.2"/>
<line x1="887.646" y1="408.44" x2="705.197" y2="233.646" stroke="rgb(107,104,149)" stroke-width="0.8" stroke-dasharray="3,3" opacity="0.45"/>
<circle cx="170.553" cy="240.282" r="5" fill="rgb(113,103,145)" stroke="white" stroke-width="1.2"/>
<rect x="143.258" y="448.718" width="10" height="10" fill="white" stroke="rgb(113,103,145)" stroke-width="2.2"/>
<line x1="170.553" y1="240.282" x2="148.258" y2="453.718" stroke="rgb(113,103,145)" stroke-width="0.8" stroke-dasharray="3,3" opacity="0.45"/>
<circle cx="419.433" cy="610.475" r="5" fill="rgb(117,102,142)" stroke="white" stroke-width="1.2"/>
<rect x="484.338" y="516.496" width="10" height="10" fill="white" stroke="rgb(117,102,142)" stroke-width="2.2"/>
<line x1="419.433" y1="610.475" x2="489.338" y2="521.496" stroke="rgb(117,102,142)" stroke-width="0.8" stroke-dasharray="3,3" opacity="0.45"/>
<circle cx="359.019" cy="819.296" r="5" fill="rgb(120,101,139)" stroke="white" stroke-width="1.2"/>
<rect x="415.045" y="804.572" width="10" height="10" fill="white" stroke="rgb(120,101,139)" stroke-width="2.2"/>
<line x1="359.019" y1="819.296" x2="420.045" y2="809.572" stroke="rgb(120,101,139)" stroke-width="0.8" stroke-dasharray="3,3" opacity="0.45"/>
<circle cx="531.888" cy="679.191" r="5" fill="rgb(122,100,138)" stroke="white" stroke-width="1.2"/>
<rect x="779.176" y="643.237" width="10" height="10" fill="white" stroke="rgb(122,100,138)" stroke-width="2.2"/>
<line x1="531.888" y1="679.191" x2="784.176" y2="648.237" stroke="rgb(122,100,138)" stroke-width="0.8" stroke-dasharray="3,3" opacity="0.45"/>
<circle cx="871.87" cy="871.69" r="5" fill="rgb(123,100,137)" stroke="white" stroke-width="1.2"/>
<rect x="788.319" y="681.454" width="10" height="10" fill="white" stroke="rgb(123,100,137)" stroke-width="2.2"/>
<line x1="871.87" y1="871.69" x2="793.319" y2="686.454" stroke="rgb(123,100,137)" stroke-width="0.8" stroke-dasharray="3,3" opacity="0.45"/>
<circle cx="362.677" cy="751.122" r="5" fill="rgb(124,100,136)" stroke="white" stroke-width="1.2"/>
<rect x="312.146" y="793.179" width="10" height="10" fill="white" stroke="rgb(124,100,136)" stroke-width="2.2"/>
<line x1="362.677" y1="751.122" x2="317.146" y2="798.179" stroke="rgb(124,100,136)" stroke-width="0.8" stroke-dasharray="3,3" opacity="0.45"/>
<circle cx="120.985" cy="471.629" r="5" fill="rgb(130,99,133)" stroke="white" stroke-width="1.2"/>
<rect x="198.453" y="721.439" width="10" height="10" fill="white" stroke="rgb(130,99,133)" stroke-width="2.2"/>
<line x1="120.985" y1="471.629" x2="203.453" y2="726.439" stroke="rgb(130,99,133)" stroke-width="0.8" stroke-dasharray="3,3" opacity="0.45"/>
<circle cx="214.036" cy="734.48" r="5" fill="rgb(137,97,127)" stroke="white" stroke-width="1.2"/>
<rect x="180.076" y="469.069" width="10" height="10" fill="white" stroke="rgb(137,97,127)" stroke-width="2.2"/>
<line x1="214.036" y1="734.48" x2="185.076" y2="474.069" stroke="rgb(137,97,127)" stroke-width="0.8" stroke-dasharray="3,3" opacity="0.45"/>
<circle cx="380.821" cy="850.866" r="5" fill="rgb(138,97,127)" stroke="white" stroke-width="1.2"/>
<rect x="434.404" y="1025.75" width="10" height="10" fill="white" stroke="rgb(138,97,127)" stroke-width="2.2"/>
<line x1="380.821" y1="850.866" x2="439.404" y2="1030.75" stroke="rgb(138,97,127)" stroke-width="0.8" stroke-dasharray="3,3" opacity="0.45"/>
<circle cx="386.497" cy="946.811" r="5" fill="rgb(160,91,110)" stroke="white" stroke-width="1.2"/>
<rect x="153.89" y="908.692" width="10" height="10" fill="white" stroke="rgb(160,91,110)" stroke-width="2.2"/>
<line x1="386.497" y1="946.811" x2="158.89" y2="913.692" stroke="rgb(160,91,110)" stroke-width="0.8" stroke-dasharray="3,3" opacity="0.45"/>
<circle cx="507.574" cy="73.4732" r="5" fill="rgb(166,90,106)" stroke="white" stroke-width="1.2"/>
<rect x="655.808" y="99.932" width="10" height="10" fill="white" stroke="rgb(166,90,106)" stroke-width="2.2"/>
<line x1="507.574" y1="73.4732" x2="660.808" y2="104.932" stroke="rgb(166,90,106)" stroke-width="0.8" stroke-dasharray="3,3" opacity="0.45"/>
<circle cx="222.007" cy="883.705" r="5" fill="rgb(169,89,103)" stroke="white" stroke-width="1.2"/>
<rect x="148.421" y="815.656" width="10" height="10" fill="white" stroke="rgb(169,89,103)" stroke-width="2.2"/>
<line x1="222.007" y1="883.705" x2="153.421" y2="820.656" stroke="rgb(169,89,103)" stroke-width="0.8" stroke-dasharray="3,3" opacity="0.45"/>
<circle cx="360.875" cy="763.822" r="5" fill="rgb(170,89,102)" stroke="white" stroke-width="1.2"/>
<rect x="338.058" y="818.293" width="10" height="10" fill="white" stroke="rgb(170,89,102)" stroke-width="2.2"/>
<line x1="360.875" y1="763.822" x2="343.058" y2="823.293" stroke="rgb(170,89,102)" stroke-width="0.8" stroke-dasharray="3,3" opacity="0.45"/>
<circle cx="301.069" cy="802.118" r="5" fill="rgb(172,89,101)" stroke="white" stroke-width="1.2"/>
<rect x="445.682" y="988.327" width="10" height="10" fill="white" stroke="rgb(172,89,101)" stroke-width="2.2"/>
<line x1="301.069" y1="802.118" x2="450.682" y2="993.327" stroke="rgb(172,89,101)" stroke-width="0.8" stroke-dasharray="3,3" opacity="0.45"/>
<circle cx="176.293" cy="657.213" r="5" fill="rgb(174,88,99)" stroke="white" stroke-width="1.2"/>
<rect x="156.088" y="484.985" width="10" height="10" fill="white" stroke="rgb(174,88,99)" stroke-width="2.2"/>
<line x1="176.293" y1="657.213" x2="161.088" y2="489.985" stroke="rgb(174,88,99)" stroke-width="0.8" stroke-dasharray="3,3" opacity="0.45"/>
<circle cx="391.331" cy="250.945" r="5" fill="rgb(180,87,95)" stroke="white" stroke-width="1.2"/>
<rect x="355.389" y="447.002" width="10" height="10" fill="white" stroke="rgb(180,87,95)" stroke-width="2.2"/>
<line x1="391.331" y1="250.945" x2="360.389" y2="452.002" stroke="rgb(180,87,95)" stroke-width="0.8" stroke-dasharray="3,3" opacity="0.45"/>
<circle cx="396.445" cy="801.951" r="5" fill="rgb(182,86,93)" stroke="white" stroke-width="1.2"/>
<rect x="303.458" y="635.542" width="10" height="10" fill="white" stroke="rgb(182,86,93)" stroke-width="2.2"/>
<line x1="396.445" y1="801.951" x2="308.458" y2="640.542" stroke="rgb(182,86,93)" stroke-width="0.8" stroke-dasharray="3,3" opacity="0.45"/>
<circle cx="615.616" cy="448.207" r="5" fill="rgb(186,86,91)" stroke="white" stroke-width="1.2"/>
<rect x="664.867" y="603.387" width="10" height="10" fill="white" stroke="rgb(186,86,91)" stroke-width="2.2"/>
<line x1="615.616" y1="448.207" x2="669.867" y2="608.387" stroke="rgb(186,86,91)" stroke-width="0.8" stroke-dasharray="3,3" opacity="0.45"/>
<circle cx="952.35" cy="614.504" r="5" fill="rgb(186,86,91)" stroke="white" stroke-width="1.2"/>
<rect x="1036.07" y="458.852" width="10" height="10" fill="white" stroke="rgb(186,86,91)" stroke-width="2.2"/>
<line x1="952.35" y1="614.504" x2="1041.07" y2="463.852" stroke="rgb(186,86,91)" stroke-width="0.8" stroke-dasharray="3,3" opacity="0.45"/>
<circle cx="272.21" cy="428.149" r="5" fill="rgb(191,84,87)" stroke="white" stroke-width="1.2"/>
<rect x="129.463" y="293.905" width="10" height="10" fill="white" stroke="rgb(191,84,87)" stroke-width="2.2"/>
<line x1="272.21" y1="428.149" x2="134.463" y2="298.905" stroke="rgb(191,84,87)" stroke-width="0.8" stroke-dasharray="3,3" opacity="0.45"/>
<circle cx="145.124" cy="1028.33" r="5" fill="rgb(193,84,85)" stroke="white" stroke-width="1.2"/>
<rect x="197.288" y="1009.81" width="10" height="10" fill="white" stroke="rgb(193,84,85)" stroke-width="2.2"/>
<line x1="145.124" y1="1028.33" x2="202.288" y2="1014.81" stroke="rgb(193,84,85)" stroke-width="0.8" stroke-dasharray="3,3" opacity="0.45"/>
<circle cx="857.968" cy="1016.1" r="5" fill="rgb(193,84,85)" stroke="white" stroke-width="1.2"/>
<rect x="755.833" y="1005.31" width="10" height="10" fill="white" stroke="rgb(193,84,85)" stroke-width="2.2"/>
<line x1="857.968" y1="1016.1" x2="760.833" y2="1010.31" stroke="rgb(193,84,85)" stroke-width="0.8" stroke-dasharray="3,3" opacity="0.45"/>
<circle cx="1012.64" cy="968.456" r="5" fill="rgb(198,83,81)" stroke="white" stroke-width="1.2"/>
<rect x="944.984" y="744.788" width="10" height="10" fill="white" stroke="rgb(198,83,81)" stroke-width="2.2"/>
<line x1="1012.64" y1="968.456" x2="949.984" y2="749.788" stroke="rgb(198,83,81)" stroke-width="0.8" stroke-dasharray="3,3" opacity="0.45"/>
<circle cx="141.336" cy="1041.07" r="5" fill="rgb(199,82,81)" stroke="white" stroke-width="1.2"/>
<rect x="102.529" y="993.914" width="10" height="10" fill="white" stroke="rgb(199,82,81)" stroke-width="2.2"/>
<line x1="141.336" y1="1041.07" x2="107.529" y2="998.914" stroke="rgb(199,82,81)" stroke-width="0.8" stroke-dasharray="3,3" opacity="0.45"/>
<circle cx="363.13" cy="578.739" r="5" fill="rgb(200,82,80)" stroke="white" stroke-width="1.2"/>
<rect x="588.833" y="550.073" width="10" height="10" fill="white" stroke="rgb(200,82,80)" stroke-width="2.2"/>
<line x1="363.13" y1="578.739" x2="593.833" y2="555.073" stroke="rgb(200,82,80)" stroke-width="0.8" stroke-dasharray="3,3" opacity="0.45"/>
<circle cx="877.865" cy="387.034" r="5" fill="rgb(201,82,79)" stroke="white" stroke-width="1.2"/>
<rect x="608.417" y="361.127" width="10" height="10" fill="white" stroke="rgb(201,82,79)" stroke-width="2.2"/>
<line x1="877.865" y1="387.034" x2="613.417" y2="366.127" stroke="rgb(201,82,79)" stroke-width="0.8" stroke-dasharray="3,3" opacity="0.45"/>
<circle cx="345.456" cy="195.672" r="5" fill="rgb(201,82,79)" stroke="white" stroke-width="1.2"/>
<rect x="459.037" y="78.8371" width="10" height="10" fill="white" stroke="rgb(201,82,79)" stroke-width="2.2"/>
<line x1="345.456" y1="195.672" x2="464.037" y2="83.8371" stroke="rgb(201,82,79)" stroke-width="0.8" stroke-dasharray="3,3" opacity="0.45"/>
<circle cx="176.982" cy="1039.48" r="5" fill="rgb(206,81,76)" stroke="white" stroke-width="1.2"/>
<rect x="270.174" y="852.377" width="10" height="10" fill="white" stroke="rgb(206,81,76)" stroke-width="2.2"/>
<line x1="176.982" y1="1039.48" x2="275.174" y2="857.377" stroke="rgb(206,81,76)" stroke-width="0.8" stroke-dasharray="3,3" opacity="0.45"/>
<circle cx="1002.41" cy="425.343" r="5" fill="rgb(210,80,73)" stroke="white" stroke-width="1.2"/>
<rect x="1001.93" y="383.199" width="10" height="10" fill="white" stroke="rgb(210,80,73)" stroke-width="2.2"/>
<line x1="1002.41" y1="425.343" x2="1006.93" y2="388.199" stroke="rgb(210,80,73)" stroke-width="0.8" stroke-dasharray="3,3" opacity="0.45"/>
<circle cx="280.576" cy="299.142" r="5" fill="rgb(211,80,72)" stroke="white" stroke-width="1.2"/>
<rect x="244.874" y="281.608" width="10" height="10" fill="white" stroke="rgb(211,80,72)" stroke-width="2.2"/>
<line x1="280.576" y1="299.142" x2="249.874" y2="286.608" stroke="rgb(211,80,72)" stroke-width="0.8" stroke-dasharray="3,3" opacity="0.45"/>
<circle cx="777.251" cy="883.227" r="5" fill="rgb(216,78,68)" stroke="white" stroke-width="1.2"/>
<rect x="760.006" y="845.976" width="10" height="10" fill="white" stroke="rgb(216,78,68)" stroke-width="2.2"/>
<line x1="777.251" y1="883.227" x2="765.006" y2="850.976" stroke="rgb(216,78,68)" stroke-width="0.8" stroke-dasharray="3,3" opacity="0.45"/>
<circle cx="165.015" cy="623.789" r="5" fill="rgb(220,78,65)" stroke="white" stroke-width="1.2"/>
<rect x="406.4" y="656.533" width="10" height="10" fill="white" stroke="rgb(220,78,65)" stroke-width="2.2"/>
<line x1="165.015" y1="623.789" x2="411.4" y2="661.533" stroke="rgb(220,78,65)" stroke-width="0.8" stroke-dasharray="3,3" opacity="0.45"/>
<circle cx="176.273" cy="999.34" r="5" fill="rgb(224,77,62)" stroke="white" stroke-width="1.2"/>
<rect x="195.248" y="1018.77" width="10" height="10" fill="white" stroke="rgb(224,77,62)" stroke-width="2.2"/>
<line x1="176.273" y1="999.34" x2="200.248" y2="1023.77" stroke="rgb(224,77,62)" stroke-width="0.8" stroke-dasharray="3,3" opacity="0.45"/>
<circle cx="327.503" cy="469.419" r="5" fill="rgb(225,76,62)" stroke="white" stroke-width="1.2"/>
<rect x="348.159" y="419.778" width="10" height="10" fill="white" stroke="rgb(225,76,62)" stroke-width="2.2"/>
<line x1="327.503" y1="469.419" x2="353.159" y2="424.778" stroke="rgb(225,76,62)" stroke-width="0.8" stroke-dasharray="3,3" opacity="0.45"/>
<circle cx="176.412" cy="1031.64" r="5" fill="rgb(226,76,61)" stroke="white" stroke-width="1.2"/>
<rect x="159.1" y="978.114" width="10" height="10" fill="white" stroke="rgb(226,76,61)" stroke-width="2.2"/>
<line x1="176.412" y1="1031.64" x2="164.1" y2="983.114" stroke="rgb(226,76,61)" stroke-width="0.8" stroke-dasharray="3,3" opacity="0.45"/>
<circle cx="81.7701" cy="676.802" r="5" fill="rgb(227,76,60)" stroke="white" stroke-width="1.2"/>
<rect x="53.9286" y="848.92" width="10" height="10" fill="white" stroke="rgb(227,76,60)" stroke-width="2.2"/>
<line x1="81.7701" y1="676.802" x2="58.9286" y2="853.92" stroke="rgb(227,76,60)" stroke-width="0.8" stroke-dasharray="3,3" opacity="0.45"/>
<circle cx="799.21" cy="851.451" r="5" fill="rgb(229,75,59)" stroke="white" stroke-width="1.2"/>
<rect x="784.661" y="876.737" width="10" height="10" fill="white" stroke="rgb(229,75,59)" stroke-width="2.2"/>
<line x1="799.21" y1="851.451" x2="789.661" y2="881.737" stroke="rgb(229,75,59)" stroke-width="0.8" stroke-dasharray="3,3" opacity="0.45"/>
<circle cx="340.668" cy="809.542" r="5" fill="rgb(231,75,57)" stroke="white" stroke-width="1.2"/>
<rect x="375.768" y="855.658" width="10" height="10" fill="white" stroke="rgb(231,75,57)" stroke-width="2.2"/>
<line x1="340.668" y1="809.542" x2="380.768" y2="860.658" stroke="rgb(231,75,57)" stroke-width="0.8" stroke-dasharray="3,3" opacity="0.45"/>
<circle cx="359.679" cy="758.534" r="5" fill="rgb(232,75,56)" stroke="white" stroke-width="1.2"/>
<rect x="364.032" y="790.829" width="10" height="10" fill="white" stroke="rgb(232,75,56)" stroke-width="2.2"/>
<line x1="359.679" y1="758.534" x2="369.032" y2="795.829" stroke="rgb(232,75,56)" stroke-width="0.8" stroke-dasharray="3,3" opacity="0.45"/>
<circle cx="501.972" cy="226.716" r="5" fill="rgb(234,74,54)" stroke="white" stroke-width="1.2"/>
<rect x="402.771" y="192.39" width="10" height="10" fill="white" stroke="rgb(234,74,54)" stroke-width="2.2"/>
<line x1="501.972" y1="226.716" x2="407.771" y2="197.39" stroke="rgb(234,74,54)" stroke-width="0.8" stroke-dasharray="3,3" opacity="0.45"/>
<circle cx="297.81" cy="1002.94" r="5" fill="rgb(235,74,54)" stroke="white" stroke-width="1.2"/>
<rect x="218.886" y="949.274" width="10" height="10" fill="white" stroke="rgb(235,74,54)" stroke-width="2.2"/>
<line x1="297.81" y1="1002.94" x2="223.886" y2="954.274" stroke="rgb(235,74,54)" stroke-width="0.8" stroke-dasharray="3,3" opacity="0.45"/>
<circle cx="161.206" cy="1008.96" r="5" fill="rgb(237,74,53)" stroke="white" stroke-width="1.2"/>
<rect x="167.776" y="1030.63" width="10" height="10" fill="white" stroke="rgb(237,74,53)" stroke-width="2.2"/>
<line x1="161.206" y1="1008.96" x2="172.776" y2="1035.63" stroke="rgb(237,74,53)" stroke-width="0.8" stroke-dasharray="3,3" opacity="0.45"/>
<circle cx="419.352" cy="852.959" r="5" fill="rgb(241,73,50)" stroke="white" stroke-width="1.2"/>
<rect x="366.656" y="921.258" width="10" height="10" fill="white" stroke="rgb(241,73,50)" stroke-width="2.2"/>
<line x1="419.352" y1="852.959" x2="371.656" y2="926.258" stroke="rgb(241,73,50)" stroke-width="0.8" stroke-dasharray="3,3" opacity="0.45"/>
<rect y="1100" width="1100" height="140" fill="#edf0f3"/>
<text x="12" y="1120" font-family="monospace" font-size="13" fill="#222">seed=2116335769  city=Tokyo_Small  mode=MCA_cheapest_insertion  density=1.48  agents=0.98  (stress_light)</text>
<text x="12" y="1140" font-family="monospace" font-size="12" fill="#222">arrived=79 accepted=79 delivered=37 unfinished=42 dist=49260m agents=3</text>
<text x="12" y="1158" font-family="monospace" font-size="12" fill="#444">spatial: bbox=28.20km² hull=24.77km² meanPD=681m meanNN=281m</text>
<text x="12" y="1176" font-family="monospace" font-size="12" fill="#555">validity: pairing_viol=4 capacity_viol=0 wallclock=67035ms</text>
<rect x="12" y="1195" width="28" height="12" fill="rgb(40,120,200)"/>
<rect x="39" y="1195" width="28" height="12" fill="rgb(70,112,177)"/>
<rect x="67" y="1195" width="28" height="12" fill="rgb(101,105,154)"/>
<rect x="94" y="1195" width="28" height="12" fill="rgb(132,98,131)"/>
<rect x="122" y="1195" width="28" height="12" fill="rgb(162,91,108)"/>
<rect x="149" y="1195" width="28" height="12" fill="rgb(193,84,85)"/>
<rect x="177" y="1195" width="28" height="12" fill="rgb(224,77,62)"/>
<rect x="204" y="1195" width="28" height="12" fill="rgb(255,70,40)"/>
<text x="238" y="1205" font-family="monospace" font-size="11" fill="#444">time gradient: blue=t=0  red=t=3600</text>
</svg>
