<svg xmlns="http://www.w3.org/2000/svg" width="1100" height="1240">
<rect width="1100" height="1100" fill="#fafbfc"/>
<line x1="170.734" y1="251.755" x2="111.861" y2="654.971" stroke="rgb(103,105,152)" stroke-width="1.4" opacity="0.85"/>
<line x1="111.861" y1="654.971" x2="215.327" y2="715.094" stroke="rgb(118,101,141)" stroke-width="1.4" opacity="0.85"/>
<line x1="215.327" y1="715.094" x2="227.843" y2="761.997" stroke="rgb(122,100,138)" stroke-width="1.4" opacity="0.85"/>
<line x1="227.843" y1="761.997" x2="418.032" y2="567.489" stroke="rgb(142,96,123)" stroke-width="1.4" opacity="0.85"/>
<line x1="418.032" y1="567.489" x2="379.414" y2="591.836" stroke="rgb(147,95,120)" stroke-width="1.4" opacity="0.85"/>
<line x1="379.414" y1="591.836" x2="372.123" y2="614.713" stroke="rgb(149,94,118)" stroke-width="1.4" opacity="0.85"/>
<line x1="372.123" y1="614.713" x2="370.616" y2="509.125" stroke="rgb(154,93,114)" stroke-width="1.4" opacity="0.85"/>
<line x1="370.616" y1="509.125" x2="389.491" y2="565.943" stroke="rgb(156,92,113)" stroke-width="1.4" opacity="0.85"/>
<line x1="389.491" y1="565.943" x2="399.704" y2="433.872" stroke="rgb(167,90,105)" stroke-width="1.4" opacity="0.85"/>
<line x1="399.704" y1="433.872" x2="318.308" y2="751.202" stroke="rgb(170,89,103)" stroke-width="1.4" opacity="0.85"/>
<line x1="318.308" y1="751.202" x2="450.919" y2="379.042" stroke="rgb(173,88,100)" stroke-width="1.4" opacity="0.85"/>
<line x1="450.919" y1="379.042" x2="560.75" y2="166.728" stroke="rgb(187,85,90)" stroke-width="1.4" opacity="0.85"/>
<line x1="560.75" y1="166.728" x2="416.453" y2="298.12" stroke="rgb(201,82,79)" stroke-width="1.4" opacity="0.85"/>
<line x1="416.453" y1="298.12" x2="255.227" y2="235.534" stroke="rgb(216,78,68)" stroke-width="1.4" opacity="0.85"/>
<line x1="255.227" y1="235.534" x2="148.62" y2="267.611" stroke="rgb(246,71,46)" stroke-width="1.4" opacity="0.85"/>
<line x1="148.62" y1="267.611" x2="157.098" y2="171.518" stroke="rgb(255,70,40)" stroke-width="1.4" opacity="0.85"/>
<line x1="157.098" y1="171.518" x2="166.269" y2="58.9286" stroke="rgb(255,70,40)" stroke-width="1.4" opacity="0.85"/>
<line x1="166.269" y1="58.9286" x2="84.4822" y2="332.022" stroke="rgb(255,70,40)" stroke-width="1.4" opacity="0.85"/>
<line x1="84.4822" y1="332.022" x2="116.665" y2="608.222" stroke="rgb(255,70,40)" stroke-width="1.4" opacity="0.85"/>
<line x1="116.665" y1="608.222" x2="80.6038" y2="634.501" stroke="rgb(255,70,40)" stroke-width="1.4" opacity="0.85"/>
<line x1="80.6038" y1="634.501" x2="188.224" y2="691.032" stroke="rgb(255,70,40)" stroke-width="1.4" opacity="0.85"/>
<line x1="188.224" y1="691.032" x2="156.504" y2="714.31" stroke="rgb(255,70,40)" stroke-width="1.4" opacity="0.85"/>
<line x1="156.504" y1="714.31" x2="127.942" y2="778.931" stroke="rgb(255,70,40)" stroke-width="1.4" opacity="0.85"/>
<line x1="127.942" y1="778.931" x2="181.852" y2="710.436" stroke="rgb(255,70,40)" stroke-width="1.4" opacity="0.85"/>
<line x1="181.852" y1="710.436" x2="185.046" y2="800.842" stroke="rgb(255,70,40)" stroke-width="1.4" opacity="0.85"/>
<line x1="185.046" y1="800.842" x2="256.053" y2="682.382" stroke="rgb(255,70,40)" stroke-width="1.4" opacity="0.85"/>
<line x1="256.053" y1="682.382" x2="311.863" y2="738.987" stroke="rgb(255,70,40)" stroke-width="1.4" opacity="0.85"/>
<line x1="311.863" y1="738.987" x2="318.308" y2="751.202" stroke="rgb(255,70,40)" stroke-width="1.4" opacity="0.85"/>
<line x1="318.308" y1="751.202" x2="318.369" y2="755.495" stroke="rgb(255,70,40)" stroke-width="1.4" opacity="0.85"/>
<line x1="318.369" y1="755.495" x2="376.664" y2="602.598" stroke="rgb(255,70,40)" stroke-width="1.4" opacity="0.85"/>
<line x1="376.664" y1="602.598" x2="311.797" y2="679.436" stroke="rgb(255,70,40)" stroke-width="1.4" opacity="0.85"/>
<line x1="311.797" y1="679.436" x2="248.228" y2="604.992" stroke="rgb(255,70,40)" stroke-width="1.4" opacity="0.85"/>
<line x1="248.228" y1="604.992" x2="307.025" y2="688.42" stroke="rgb(255,70,40)" stroke-width="1.4" opacity="0.85"/>
<line x1="307.025" y1="688.42" x2="132.129" y2="700.223" stroke="rgb(255,70,40)" stroke-width="1.4" opacity="0.85"/>
<line x1="132.129" y1="700.223" x2="58.9286" y2="537.428" stroke="rgb(255,70,40)" stroke-width="1.4" opacity="0.85"/>
<line x1="58.9286" y1="537.428" x2="367.094" y2="170.806" stroke="rgb(255,70,40)" stroke-width="1.4" opacity="0.85"/>
<line x1="367.094" y1="170.806" x2="385.674" y2="105.434" stroke="rgb(255,70,40)" stroke-width="1.4" opacity="0.85"/>
<line x1="385.674" y1="105.434" x2="412.776" y2="223.505" stroke="rgb(255,70,40)" stroke-width="1.4" opacity="0.85"/>
<line x1="412.776" y1="223.505" x2="282.527" y2="500.226" stroke="rgb(255,70,40)" stroke-width="1.4" opacity="0.85"/>
<line x1="282.527" y1="500.226" x2="220.028" y2="1041.07" stroke="rgb(255,70,40)" stroke-width="1.4" opacity="0.85"/>
<line x1="220.028" y1="1041.07" x2="300.262" y2="995.421" stroke="rgb(255,70,40)" stroke-width="1.4" opacity="0.85"/>
<line x1="300.262" y1="995.421" x2="381.175" y2="987.699" stroke="rgb(255,70,40)" stroke-width="1.4" opacity="0.85"/>
<line x1="381.175" y1="987.699" x2="534.053" y2="692.468" stroke="rgb(255,70,40)" stroke-width="1.4" opacity="0.85"/>
<line x1="534.053" y1="692.468" x2="679.637" y2="388.343" stroke="rgb(255,70,40)" stroke-width="1.4" opacity="0.85"/>
<line x1="679.637" y1="388.343" x2="786.467" y2="277.628" stroke="rgb(255,70,40)" stroke-width="1.4" opacity="0.85"/>
<line x1="786.467" y1="277.628" x2="831.574" y2="404.788" stroke="rgb(255,70,40)" stroke-width="1.4" opacity="0.85"/>
<line x1="831.574" y1="404.788" x2="777.85" y2="486.899" stroke="rgb(255,70,40)" stroke-width="1.4" opacity="0.85"/>
<line x1="777.85" y1="486.899" x2="853.339" y2="408.352" stroke="rgb(255,70,40)" stroke-width="1.4" opacity="0.85"/>
<line x1="853.339" y1="408.352" x2="923.953" y2="286.104" stroke="rgb(255,70,40)" stroke-width="1.4" opacity="0.85"/>
<line x1="923.953" y1="286.104" x2="900.891" y2="196.889" stroke="rgb(255,70,40)" stroke-width="1.4" opacity="0.85"/>
<line x1="900.891" y1="196.889" x2="916.462" y2="223.902" stroke="rgb(255,70,40)" stroke-width="1.4" opacity="0.85"/>
<line x1="916.462" y1="223.902" x2="987.167" y2="113.839" stroke="rgb(255,70,40)" stroke-width="1.4" opacity="0.85"/>
<line x1="987.167" y1="113.839" x2="891.823" y2="318.607" stroke="rgb(255,70,40)" stroke-width="1.4" opacity="0.85"/>
<line x1="891.823" y1="318.607" x2="673.664" y2="68.1668" stroke="rgb(255,70,40)" stroke-width="1.4" opacity="0.85"/>
<line x1="673.664" y1="68.1668" x2="594.527" y2="584.202" stroke="rgb(255,70,40)" stroke-width="1.4" opacity="0.85"/>
<line x1="594.527" y1="584.202" x2="982.526" y2="797.418" stroke="rgb(255,70,40)" stroke-width="1.4" opacity="0.85"/>
<line x1="982.526" y1="797.418" x2="1041.07" y2="784.712" stroke="rgb(255,70,40)" stroke-width="1.4" opacity="0.85"/>
<line x1="1041.07" y1="784.712" x2="1030.58" y2="831.011" stroke="rgb(255,70,40)" stroke-width="1.4" opacity="0.85"/>
<line x1="1030.58" y1="831.011" x2="1022" y2="725.68" stroke="rgb(255,70,40)" stroke-width="1.4" opacity="0.85"/>
<line x1="1022" y1="725.68" x2="1031.54" y2="731.017" stroke="rgb(255,70,40)" stroke-width="1.4" opacity="0.85"/>
<line x1="1031.54" y1="731.017" x2="1032.49" y2="750.042" stroke="rgb(255,70,40)" stroke-width="1.4" opacity="0.85"/>
<line x1="1032.49" y1="750.042" x2="981.585" y2="805.328" stroke="rgb(255,70,40)" stroke-width="1.4" opacity="0.85"/>
<line x1="981.585" y1="805.328" x2="861.639" y2="970.357" stroke="rgb(255,70,40)" stroke-width="1.4" opacity="0.85"/>
<circle cx="111.861" cy="654.971" r="5" fill="rgb(43,119,197)" stroke="white" stroke-width="1.2"/>
<rect x="210.327" y="710.094" width="10" height="10" fill="white" stroke="rgb(43,119,197)" stroke-width="2.2"/>
<line x1="111.861" y1="654.971" x2="215.327" y2="715.094" stroke="rgb(43,119,197)" stroke-width="0.8" stroke-dasharray="3,3" opacity="0.45"/>
<circle cx="88.8269" cy="705.453" r="5" fill="rgb(53,116,190)" stroke="white" stroke-width="1.2"/>
<rect x="222.843" y="756.997" width="10" height="10" fill="white" stroke="rgb(53,116,190)" stroke-width="2.2"/>
<line x1="88.8269" y1="705.453" x2="227.843" y2="761.997" stroke="rgb(53,116,190)" stroke-width="0.8" stroke-dasharray="3,3" opacity="0.45"/>
<circle cx="418.032" cy="567.489" r="5" fill="rgb(76,111,172)" stroke="white" stroke-width="1.2"/>
<rect x="374.414" y="586.836" width="10" height="10" fill="white" stroke="rgb(76,111,172)" stroke-width="2.2"/>
<line x1="418.032" y1="567.489" x2="379.414" y2="591.836" stroke="rgb(76,111,172)" stroke-width="0.8" stroke-dasharray="3,3" opacity="0.45"/>
<circle cx="416.318" cy="564.612" r="5" fill="rgb(109,103,148)" stroke="white" stroke-width="1.2"/>
<rect x="367.123" y="609.713" width="10" height="10" fill="white" stroke="rgb(109,103,148)" stroke-width="2.2"/>
<line x1="416.318" y1="564.612" x2="372.123" y2="614.713" stroke="rgb(109,103,148)" stroke-width="0.8" stroke-dasharray="3,3" opacity="0.45"/>
<circle cx="370.616" cy="509.125" r="5" fill="rgb(94,107,159)" stroke="white" stroke-width="1.2"/>
<rect x="384.491" y="560.943" width="10" height="10" fill="white" stroke="rgb(94,107,159)" stroke-width="2.2"/>
<line x1="370.616" y1="509.125" x2="389.491" y2="565.943" stroke="rgb(94,107,159)" stroke-width="0.8" stroke-dasharray="3,3" opacity="0.45"/>
<circle cx="399.704" cy="433.872" r="5" fill="rgb(127,99,135)" stroke="white" stroke-width="1.2"/>
<rect x="313.308" y="746.202" width="10" height="10" fill="white" stroke="rgb(127,99,135)" stroke-width="2.2"/>
<line x1="399.704" y1="433.872" x2="318.308" y2="751.202" stroke="rgb(127,99,135)" stroke-width="0.8" stroke-dasharray="3,3" opacity="0.45"/>
<circle cx="423.842" cy="415.357" r="5" fill="rgb(167,90,105)" stroke="white" stroke-width="1.2"/>
<rect x="445.919" y="374.042" width="10" height="10" fill="white" stroke="rgb(167,90,105)" stroke-width="2.2"/>
<line x1="423.842" y1="415.357" x2="450.919" y2="379.042" stroke="rgb(167,90,105)" stroke-width="0.8" stroke-dasharray="3,3" opacity="0.45"/>
<circle cx="560.75" cy="166.728" r="5" fill="rgb(100,105,155)" stroke="white" stroke-width="1.2"/>
<rect x="411.453" y="293.12" width="10" height="10" fill="white" stroke="rgb(100,105,155)" stroke-width="2.2"/>
<line x1="560.75" y1="166.728" x2="416.453" y2="298.12" stroke="rgb(100,105,155)" stroke-width="0.8" stroke-dasharray="3,3" opacity="0.45"/>
<circle cx="255.227" cy="235.534" r="5" fill="rgb(101,105,154)" stroke="white" stroke-width="1.2"/>
<rect x="143.62" y="262.611" width="10" height="10" fill="white" stroke="rgb(101,105,154)" stroke-width="2.2"/>
<line x1="255.227" y1="235.534" x2="148.62" y2="267.611" stroke="rgb(101,105,154)" stroke-width="0.8" stroke-dasharray="3,3" opacity="0.45"/>
<circle cx="167.221" cy="331.075" r="5" fill="rgb(52,117,190)" stroke="white" stroke-width="1.2"/>
<rect x="79.4822" y="327.022" width="10" height="10" fill="white" stroke="rgb(52,117,190)" stroke-width="2.2"/>
<line x1="167.221" y1="331.075" x2="84.4822" y2="332.022" stroke="rgb(52,117,190)" stroke-width="0.8" stroke-dasharray="3,3" opacity="0.45"/>
<circle cx="1032.49" cy="750.042" r="5" fill="rgb(65,114,180)" stroke="white" stroke-width="1.2"/>
<rect x="856.639" y="965.357" width="10" height="10" fill="white" stroke="rgb(65,114,180)" stroke-width="2.2"/>
<line x1="1032.49" y1="750.042" x2="861.639" y2="970.357" stroke="rgb(65,114,180)" stroke-width="0.8" stroke-dasharray="3,3" opacity="0.45"/>
<circle cx="1031.54" cy="731.017" r="5" fill="rgb(74,112,174)" stroke="white" stroke-width="1.2"/>
<rect x="976.585" y="800.328" width="10" height="10" fill="white" stroke="rgb(74,112,174)" stroke-width="2.2"/>
<line x1="1031.54" y1="731.017" x2="981.585" y2="805.328" stroke="rgb(74,112,174)" stroke-width="0.8" stroke-dasharray="3,3" opacity="0.45"/>
<circle cx="900.891" cy="196.889" r="5" fill="rgb(87,108,164)" stroke="white" stroke-width="1.2"/>
<rect x="668.664" y="63.1668" width="10" height="10" fill="white" stroke="rgb(87,108,164)" stroke-width="2.2"/>
<line x1="900.891" y1="196.889" x2="673.664" y2="68.1668" stroke="rgb(87,108,164)" stroke-width="0.8" stroke-dasharray="3,3" opacity="0.45"/>
<circle cx="1041.07" cy="784.712" r="5" fill="rgb(100,105,154)" stroke="white" stroke-width="1.2"/>
<rect x="1025.58" y="826.011" width="10" height="10" fill="white" stroke="rgb(100,105,154)" stroke-width="2.2"/>
<line x1="1041.07" y1="784.712" x2="1030.58" y2="831.011" stroke="rgb(100,105,154)" stroke-width="0.8" stroke-dasharray="3,3" opacity="0.45"/>
<circle cx="982.526" cy="797.418" r="5" fill="rgb(104,104,151)" stroke="white" stroke-width="1.2"/>
<rect x="1017" y="720.68" width="10" height="10" fill="white" stroke="rgb(104,104,151)" stroke-width="2.2"/>
<line x1="982.526" y1="797.418" x2="1022" y2="725.68" stroke="rgb(104,104,151)" stroke-width="0.8" stroke-dasharray="3,3" opacity="0.45"/>
<circle cx="185.046" cy="800.842" r="5" fill="rgb(131,98,131)" stroke="white" stroke-width="1.2"/>
<rect x="127.129" y="695.223" width="10" height="10" fill="white" stroke="rgb(131,98,131)" stroke-width="2.2"/>
<line x1="185.046" y1="800.842" x2="132.129" y2="700.223" stroke="rgb(131,98,131)" stroke-width="0.8" stroke-dasharray="3,3" opacity="0.45"/>
<circle cx="188.224" cy="691.032" r="5" fill="rgb(131,98,131)" stroke="white" stroke-width="1.2"/>
<rect x="151.504" y="709.31" width="10" height="10" fill="white" stroke="rgb(131,98,131)" stroke-width="2.2"/>
<line x1="188.224" y1="691.032" x2="156.504" y2="714.31" stroke="rgb(131,98,131)" stroke-width="0.8" stroke-dasharray="3,3" opacity="0.45"/>
<circle cx="127.942" cy="778.931" r="5" fill="rgb(138,97,126)" stroke="white" stroke-width="1.2"/>
<rect x="176.852" y="705.436" width="10" height="10" fill="white" stroke="rgb(138,97,126)" stroke-width="2.2"/>
<line x1="127.942" y1="778.931" x2="181.852" y2="710.436" stroke="rgb(138,97,126)" stroke-width="0.8" stroke-dasharray="3,3" opacity="0.45"/>
<circle cx="248.228" cy="604.992" r="5" fill="rgb(144,95,121)" stroke="white" stroke-width="1.2"/>
<rect x="302.025" y="683.42" width="10" height="10" fill="white" stroke="rgb(144,95,121)" stroke-width="2.2"/>
<line x1="248.228" y1="604.992" x2="307.025" y2="688.42" stroke="rgb(144,95,121)" stroke-width="0.8" stroke-dasharray="3,3" opacity="0.45"/>
<circle cx="256.053" cy="682.382" r="5" fill="rgb(147,95,120)" stroke="white" stroke-width="1.2"/>
<rect x="53.9286" y="532.428" width="10" height="10" fill="white" stroke="rgb(147,95,120)" stroke-width="2.2"/>
<line x1="256.053" y1="682.382" x2="58.9286" y2="537.428" stroke="rgb(147,95,120)" stroke-width="0.8" stroke-dasharray="3,3" opacity="0.45"/>
<circle cx="381.175" cy="987.699" r="5" fill="rgb(151,93,116)" stroke="white" stroke-width="1.2"/>
<rect x="529.053" y="687.468" width="10" height="10" fill="white" stroke="rgb(151,93,116)" stroke-width="2.2"/>
<line x1="381.175" y1="987.699" x2="534.053" y2="692.468" stroke="rgb(151,93,116)" stroke-width="0.8" stroke-dasharray="3,3" opacity="0.45"/>
<circle cx="923.953" cy="286.104" r="5" fill="rgb(159,92,111)" stroke="white" stroke-width="1.2"/>
<rect x="982.167" y="108.839" width="10" height="10" fill="white" stroke="rgb(159,92,111)" stroke-width="2.2"/>
<line x1="923.953" y1="286.104" x2="987.167" y2="113.839" stroke="rgb(159,92,111)" stroke-width="0.8" stroke-dasharray="3,3" opacity="0.45"/>
<circle cx="777.85" cy="486.899" r="5" fill="rgb(162,91,108)" stroke="white" stroke-width="1.2"/>
<rect x="848.339" y="403.352" width="10" height="10" fill="white" stroke="rgb(162,91,108)" stroke-width="2.2"/>
<line x1="777.85" y1="486.899" x2="853.339" y2="408.352" stroke="rgb(162,91,108)" stroke-width="0.8" stroke-dasharray="3,3" opacity="0.45"/>
<circle cx="916.462" cy="223.902" r="5" fill="rgb(178,87,96)" stroke="white" stroke-width="1.2"/>
<rect x="886.823" y="313.607" width="10" height="10" fill="white" stroke="rgb(178,87,96)" stroke-width="2.2"/>
<line x1="916.462" y1="223.902" x2="891.823" y2="318.607" stroke="rgb(178,87,96)" stroke-width="0.8" stroke-dasharray="3,3" opacity="0.45"/>
<circle cx="157.098" cy="171.518" r="5" fill="rgb(180,87,95)" stroke="white" stroke-width="1.2"/>
<rect x="380.674" y="100.434" width="10" height="10" fill="white" stroke="rgb(180,87,95)" stroke-width="2.2"/>
<line x1="157.098" y1="171.518" x2="385.674" y2="105.434" stroke="rgb(180,87,95)" stroke-width="0.8" stroke-dasharray="3,3" opacity="0.45"/>
<circle cx="376.664" cy="602.598" r="5" fill="rgb(191,84,86)" stroke="white" stroke-width="1.2"/>
<rect x="306.797" y="674.436" width="10" height="10" fill="white" stroke="rgb(191,84,86)" stroke-width="2.2"/>
<line x1="376.664" y1="602.598" x2="311.797" y2="679.436" stroke="rgb(191,84,86)" stroke-width="0.8" stroke-dasharray="3,3" opacity="0.45"/>
<circle cx="80.6038" cy="634.501" r="5" fill="rgb(200,82,80)" stroke="white" stroke-width="1.2"/>
<rect x="306.863" y="733.987" width="10" height="10" fill="white" stroke="rgb(200,82,80)" stroke-width="2.2"/>
<line x1="80.6038" y1="634.501" x2="311.863" y2="738.987" stroke="rgb(200,82,80)" stroke-width="0.8" stroke-dasharray="3,3" opacity="0.45"/>
<circle cx="831.574" cy="404.788" r="5" fill="rgb(208,80,74)" stroke="white" stroke-width="1.2"/>
<rect x="589.527" y="579.202" width="10" height="10" fill="white" stroke="rgb(208,80,74)" stroke-width="2.2"/>
<line x1="831.574" y1="404.788" x2="594.527" y2="584.202" stroke="rgb(208,80,74)" stroke-width="0.8" stroke-dasharray="3,3" opacity="0.45"/>
<circle cx="412.776" cy="223.505" r="5" fill="rgb(210,80,73)" stroke="white" stroke-width="1.2"/>
<rect x="277.527" y="495.226" width="10" height="10" fill="white" stroke="rgb(210,80,73)" stroke-width="2.2"/>
<line x1="412.776" y1="223.505" x2="282.527" y2="500.226" stroke="rgb(210,80,73)" stroke-width="0.8" stroke-dasharray="3,3" opacity="0.45"/>
<circle cx="116.665" cy="608.222" r="5" fill="rgb(210,80,73)" stroke="white" stroke-width="1.2"/>
<rect x="313.369" y="750.495" width="10" height="10" fill="white" stroke="rgb(210,80,73)" stroke-width="2.2"/>
<line x1="116.665" y1="608.222" x2="318.369" y2="755.495" stroke="rgb(210,80,73)" stroke-width="0.8" stroke-dasharray="3,3" opacity="0.45"/>
<circle cx="220.028" cy="1041.07" r="5" fill="rgb(211,80,72)" stroke="white" stroke-width="1.2"/>
<rect x="295.262" y="990.421" width="10" height="10" fill="white" stroke="rgb(211,80,72)" stroke-width="2.2"/>
<line x1="220.028" y1="1041.07" x2="300.262" y2="995.421" stroke="rgb(211,80,72)" stroke-width="0.8" stroke-dasharray="3,3" opacity="0.45"/>
<circle cx="166.269" cy="58.9286" r="5" fill="rgb(220,77,65)" stroke="white" stroke-width="1.2"/>
<rect x="362.094" y="165.806" width="10" height="10" fill="white" stroke="rgb(220,77,65)" stroke-width="2.2"/>
<line x1="166.269" y1="58.9286" x2="367.094" y2="170.806" stroke="rgb(220,77,65)" stroke-width="0.8" stroke-dasharray="3,3" opacity="0.45"/>
<circle cx="679.637" cy="388.343" r="5" fill="rgb(231,75,57)" stroke="white" stroke-width="1.2"/>
<rect x="781.467" y="272.628" width="10" height="10" fill="white" stroke="rgb(231,75,57)" stroke-width="2.2"/>
<line x1="679.637" y1="388.343" x2="786.467" y2="277.628" stroke="rgb(231,75,57)" stroke-width="0.8" stroke-dasharray="3,3" opacity="0.45"/>
<rect y="1100" width="1100" height="140" fill="#edf0f3"/>
<text x="12" y="1120" font-family="monospace" font-size="13" fill="#222">seed=442261749  city=LosAngeles_Small  mode=DbVNS_lifelong_replan  density=2.25  agents=1.00  (high_saturation)</text>
<text x="12" y="1140" font-family="monospace" font-size="12" fill="#222">arrived=33 accepted=33 delivered=12 unfinished=21 dist=45411m agents=1</text>
<text x="12" y="1158" font-family="monospace" font-size="12" fill="#444">spatial: bbox=20.89km² hull=17.94km² meanPD=745m meanNN=350m</text>
<text x="12" y="1176" font-family="monospace" font-size="12" fill="#555">validity: pairing_viol=18 capacity_viol=0 wallclock=15180ms</text>
<rect x="12" y="1195" width="28" height="12" fill="rgb(40,120,200)"/>
<rect x="39" y="1195" width="28" height="12" fill="rgb(70,112,177)"/>
<rect x="67" y="1195" width="28" height="12" fill="rgb(101,105,154)"/>
<rect x="94" y="1195" width="28" height="12" fill="rgb(132,98,131)"/>
<rect x="122" y="1195" width="28" height="12" fill="rgb(162,91,108)"/>
<rect x="149" y="1195" width="28" height="12" fill="rgb(193,84,85)"/>
<rect x="177" y="1195" width="28" height="12" fill="rgb(224,77,62)"/>
<rect x="204" y="1195" width="28" height="12" fill="rgb(255,70,40)"/>
<text x="238" y="1205" font-family="monospace" font-size="11" fill="#444">time gradient: blue=t=0  red=t=3600</text>
</svg>
