<svg xmlns="http://www.w3.org/2000/svg" width="1100" height="1240">
<rect width="1100" height="1100" fill="#fafbfc"/>
<line x1="234.084" y1="705.144" x2="845.22" y2="1013.74" stroke="rgb(255,70,40)" stroke-width="1.4" opacity="0.85"/>
<line x1="845.22" y1="1013.74" x2="847.813" y2="1035.08" stroke="rgb(255,70,40)" stroke-width="1.4" opacity="0.85"/>
<line x1="847.813" y1="1035.08" x2="882.52" y2="1037.68" stroke="rgb(255,70,40)" stroke-width="1.4" opacity="0.85"/>
<line x1="882.52" y1="1037.68" x2="928.492" y2="1036.46" stroke="rgb(255,70,40)" stroke-width="1.4" opacity="0.85"/>
<line x1="928.492" y1="1036.46" x2="850.931" y2="1012.82" stroke="rgb(255,70,40)" stroke-width="1.4" opacity="0.85"/>
<line x1="850.931" y1="1012.82" x2="865.228" y2="571.753" stroke="rgb(255,70,40)" stroke-width="1.4" opacity="0.85"/>
<line x1="865.228" y1="571.753" x2="692.32" y2="572.278" stroke="rgb(255,70,40)" stroke-width="1.4" opacity="0.85"/>
<line x1="692.32" y1="572.278" x2="655.965" y2="575.407" stroke="rgb(255,70,40)" stroke-width="1.4" opacity="0.85"/>
<line x1="655.965" y1="575.407" x2="589.373" y2="585.697" stroke="rgb(255,70,40)" stroke-width="1.4" opacity="0.85"/>
<line x1="589.373" y1="585.697" x2="692.185" y2="528.832" stroke="rgb(255,70,40)" stroke-width="1.4" opacity="0.85"/>
<line x1="692.185" y1="528.832" x2="697.69" y2="574.02" stroke="rgb(255,70,40)" stroke-width="1.4" opacity="0.85"/>
<line x1="697.69" y1="574.02" x2="786.07" y2="578.299" stroke="rgb(255,70,40)" stroke-width="1.4" opacity="0.85"/>
<line x1="786.07" y1="578.299" x2="771.986" y2="431.191" stroke="rgb(255,70,40)" stroke-width="1.4" opacity="0.85"/>
<line x1="771.986" y1="431.191" x2="877.091" y2="285.087" stroke="rgb(255,70,40)" stroke-width="1.4" opacity="0.85"/>
<line x1="877.091" y1="285.087" x2="858.099" y2="378.149" stroke="rgb(255,70,40)" stroke-width="1.4" opacity="0.85"/>
<line x1="858.099" y1="378.149" x2="849.402" y2="505.068" stroke="rgb(255,70,40)" stroke-width="1.4" opacity="0.85"/>
<line x1="849.402" y1="505.068" x2="797.608" y2="638.336" stroke="rgb(255,70,40)" stroke-width="1.4" opacity="0.85"/>
<line x1="797.608" y1="638.336" x2="656.332" y2="712.728" stroke="rgb(255,70,40)" stroke-width="1.4" opacity="0.85"/>
<line x1="656.332" y1="712.728" x2="819.762" y2="736.051" stroke="rgb(255,70,40)" stroke-width="1.4" opacity="0.85"/>
<line x1="819.762" y1="736.051" x2="806.84" y2="603.997" stroke="rgb(255,70,40)" stroke-width="1.4" opacity="0.85"/>
<line x1="806.84" y1="603.997" x2="804.346" y2="649.877" stroke="rgb(255,70,40)" stroke-width="1.4" opacity="0.85"/>
<line x1="804.346" y1="649.877" x2="865.791" y2="678.383" stroke="rgb(255,70,40)" stroke-width="1.4" opacity="0.85"/>
<line x1="865.791" y1="678.383" x2="1001.98" y2="505.742" stroke="rgb(255,70,40)" stroke-width="1.4" opacity="0.85"/>
<line x1="1001.98" y1="505.742" x2="985.075" y2="474.372" stroke="rgb(255,70,40)" stroke-width="1.4" opacity="0.85"/>
<line x1="985.075" y1="474.372" x2="950.921" y2="465.311" stroke="rgb(255,70,40)" stroke-width="1.4" opacity="0.85"/>
<line x1="950.921" y1="465.311" x2="927.492" y2="491.008" stroke="rgb(255,70,40)" stroke-width="1.4" opacity="0.85"/>
<line x1="927.492" y1="491.008" x2="946.794" y2="285.067" stroke="rgb(255,70,40)" stroke-width="1.4" opacity="0.85"/>
<line x1="946.794" y1="285.067" x2="1028.16" y2="228.058" stroke="rgb(255,70,40)" stroke-width="1.4" opacity="0.85"/>
<line x1="1028.16" y1="228.058" x2="849.422" y2="150.96" stroke="rgb(255,70,40)" stroke-width="1.4" opacity="0.85"/>
<line x1="849.422" y1="150.96" x2="907.005" y2="247.027" stroke="rgb(255,70,40)" stroke-width="1.4" opacity="0.85"/>
<line x1="907.005" y1="247.027" x2="770.847" y2="347.264" stroke="rgb(255,70,40)" stroke-width="1.4" opacity="0.85"/>
<line x1="770.847" y1="347.264" x2="889.7" y2="467.281" stroke="rgb(255,70,40)" stroke-width="1.4" opacity="0.85"/>
<line x1="889.7" y1="467.281" x2="947.539" y2="502.241" stroke="rgb(255,70,40)" stroke-width="1.4" opacity="0.85"/>
<line x1="947.539" y1="502.241" x2="864.195" y2="687.136" stroke="rgb(255,70,40)" stroke-width="1.4" opacity="0.85"/>
<line x1="864.195" y1="687.136" x2="831.925" y2="703.895" stroke="rgb(255,70,40)" stroke-width="1.4" opacity="0.85"/>
<line x1="831.925" y1="703.895" x2="880.017" y2="750.835" stroke="rgb(255,70,40)" stroke-width="1.4" opacity="0.85"/>
<line x1="880.017" y1="750.835" x2="913.11" y2="762.582" stroke="rgb(255,70,40)" stroke-width="1.4" opacity="0.85"/>
<line x1="913.11" y1="762.582" x2="894.899" y2="702.381" stroke="rgb(255,70,40)" stroke-width="1.4" opacity="0.85"/>
<line x1="894.899" y1="702.381" x2="906.207" y2="633.056" stroke="rgb(255,70,40)" stroke-width="1.4" opacity="0.85"/>
<line x1="906.207" y1="633.056" x2="882.161" y2="713.402" stroke="rgb(255,70,40)" stroke-width="1.4" opacity="0.85"/>
<line x1="882.161" y1="713.402" x2="864.32" y2="770.151" stroke="rgb(255,70,40)" stroke-width="1.4" opacity="0.85"/>
<line x1="864.32" y1="770.151" x2="793.247" y2="811.868" stroke="rgb(255,70,40)" stroke-width="1.4" opacity="0.85"/>
<line x1="793.247" y1="811.868" x2="858.948" y2="872.777" stroke="rgb(255,70,40)" stroke-width="1.4" opacity="0.85"/>
<line x1="858.948" y1="872.777" x2="907.032" y2="830.287" stroke="rgb(255,70,40)" stroke-width="1.4" opacity="0.85"/>
<line x1="907.032" y1="830.287" x2="904.664" y2="830.124" stroke="rgb(255,70,40)" stroke-width="1.4" opacity="0.85"/>
<line x1="904.664" y1="830.124" x2="834.625" y2="892.103" stroke="rgb(255,70,40)" stroke-width="1.4" opacity="0.85"/>
<line x1="834.625" y1="892.103" x2="659.826" y2="1004.11" stroke="rgb(255,70,40)" stroke-width="1.4" opacity="0.85"/>
<line x1="659.826" y1="1004.11" x2="618.847" y2="915.056" stroke="rgb(255,70,40)" stroke-width="1.4" opacity="0.85"/>
<line x1="618.847" y1="915.056" x2="759.644" y2="817.596" stroke="rgb(255,70,40)" stroke-width="1.4" opacity="0.85"/>
<line x1="759.644" y1="817.596" x2="687.703" y2="700.399" stroke="rgb(255,70,40)" stroke-width="1.4" opacity="0.85"/>
<line x1="687.703" y1="700.399" x2="824.929" y2="817.257" stroke="rgb(255,70,40)" stroke-width="1.4" opacity="0.85"/>
<line x1="824.929" y1="817.257" x2="839.877" y2="750.741" stroke="rgb(255,70,40)" stroke-width="1.4" opacity="0.85"/>
<line x1="839.877" y1="750.741" x2="920.193" y2="624.372" stroke="rgb(255,70,40)" stroke-width="1.4" opacity="0.85"/>
<line x1="920.193" y1="624.372" x2="1041.07" y2="573.574" stroke="rgb(255,70,40)" stroke-width="1.4" opacity="0.85"/>
<line x1="109.194" y1="62.3849" x2="162.578" y2="58.9286" stroke="rgb(255,70,40)" stroke-width="1.4" opacity="0.85"/>
<line x1="162.578" y1="58.9286" x2="249.591" y2="152.441" stroke="rgb(255,70,40)" stroke-width="1.4" opacity="0.85"/>
<line x1="249.591" y1="152.441" x2="492.655" y2="168.869" stroke="rgb(255,70,40)" stroke-width="1.4" opacity="0.85"/>
<line x1="492.655" y1="168.869" x2="480.823" y2="169.988" stroke="rgb(255,70,40)" stroke-width="1.4" opacity="0.85"/>
<line x1="480.823" y1="169.988" x2="305.238" y2="146.953" stroke="rgb(255,70,40)" stroke-width="1.4" opacity="0.85"/>
<line x1="305.238" y1="146.953" x2="380.607" y2="270.508" stroke="rgb(255,70,40)" stroke-width="1.4" opacity="0.85"/>
<line x1="380.607" y1="270.508" x2="380.23" y2="302.185" stroke="rgb(255,70,40)" stroke-width="1.4" opacity="0.85"/>
<line x1="380.23" y1="302.185" x2="457.69" y2="355.879" stroke="rgb(255,70,40)" stroke-width="1.4" opacity="0.85"/>
<line x1="457.69" y1="355.879" x2="462.776" y2="345.818" stroke="rgb(255,70,40)" stroke-width="1.4" opacity="0.85"/>
<line x1="462.776" y1="345.818" x2="457.69" y2="355.879" stroke="rgb(255,70,40)" stroke-width="1.4" opacity="0.85"/>
<line x1="457.69" y1="355.879" x2="380.23" y2="302.185" stroke="rgb(255,70,40)" stroke-width="1.4" opacity="0.85"/>
<line x1="380.23" y1="302.185" x2="435.895" y2="301.177" stroke="rgb(255,70,40)" stroke-width="1.4" opacity="0.85"/>
<line x1="435.895" y1="301.177" x2="438.906" y2="238.467" stroke="rgb(255,70,40)" stroke-width="1.4" opacity="0.85"/>
<line x1="438.906" y1="238.467" x2="470.182" y2="251.747" stroke="rgb(255,70,40)" stroke-width="1.4" opacity="0.85"/>
<line x1="470.182" y1="251.747" x2="692.534" y2="358.954" stroke="rgb(255,70,40)" stroke-width="1.4" opacity="0.85"/>
<line x1="692.534" y1="358.954" x2="817.37" y2="323.132" stroke="rgb(255,70,40)" stroke-width="1.4" opacity="0.85"/>
<line x1="817.37" y1="323.132" x2="913.457" y2="313.149" stroke="rgb(255,70,40)" stroke-width="1.4" opacity="0.85"/>
<line x1="913.457" y1="313.149" x2="834.327" y2="269.8" stroke="rgb(255,70,40)" stroke-width="1.4" opacity="0.85"/>
<line x1="834.327" y1="269.8" x2="848.92" y2="232.815" stroke="rgb(255,70,40)" stroke-width="1.4" opacity="0.85"/>
<line x1="848.92" y1="232.815" x2="835.097" y2="80.3531" stroke="rgb(255,70,40)" stroke-width="1.4" opacity="0.85"/>
<line x1="835.097" y1="80.3531" x2="672.299" y2="303.281" stroke="rgb(255,70,40)" stroke-width="1.4" opacity="0.85"/>
<line x1="672.299" y1="303.281" x2="944.025" y2="299.034" stroke="rgb(255,70,40)" stroke-width="1.4" opacity="0.85"/>
<line x1="944.025" y1="299.034" x2="993.525" y2="307.649" stroke="rgb(255,70,40)" stroke-width="1.4" opacity="0.85"/>
<line x1="993.525" y1="307.649" x2="1037.76" y2="305.781" stroke="rgb(255,70,40)" stroke-width="1.4" opacity="0.85"/>
<line x1="1037.76" y1="305.781" x2="976.157" y2="466.845" stroke="rgb(255,70,40)" stroke-width="1.4" opacity="0.85"/>
<line x1="107.618" y1="609.538" x2="105.251" y2="675.563" stroke="rgb(255,70,40)" stroke-width="1.4" opacity="0.85"/>
<line x1="105.251" y1="675.563" x2="125.213" y2="838.56" stroke="rgb(255,70,40)" stroke-width="1.4" opacity="0.85"/>
<line x1="125.213" y1="838.56" x2="58.9286" y2="915.963" stroke="rgb(255,70,40)" stroke-width="1.4" opacity="0.85"/>
<line x1="58.9286" y1="915.963" x2="156.219" y2="895.701" stroke="rgb(255,70,40)" stroke-width="1.4" opacity="0.85"/>
<line x1="156.219" y1="895.701" x2="143.856" y2="945.891" stroke="rgb(255,70,40)" stroke-width="1.4" opacity="0.85"/>
<line x1="143.856" y1="945.891" x2="190.845" y2="990.366" stroke="rgb(255,70,40)" stroke-width="1.4" opacity="0.85"/>
<line x1="190.845" y1="990.366" x2="173.03" y2="975.648" stroke="rgb(255,70,40)" stroke-width="1.4" opacity="0.85"/>
<line x1="173.03" y1="975.648" x2="174.973" y2="884.994" stroke="rgb(255,70,40)" stroke-width="1.4" opacity="0.85"/>
<line x1="174.973" y1="884.994" x2="204.76" y2="891.798" stroke="rgb(255,70,40)" stroke-width="1.4" opacity="0.85"/>
<line x1="204.76" y1="891.798" x2="709.083" y2="879.801" stroke="rgb(255,70,40)" stroke-width="1.4" opacity="0.85"/>
<line x1="709.083" y1="879.801" x2="776.903" y2="863.629" stroke="rgb(255,70,40)" stroke-width="1.4" opacity="0.85"/>
<line x1="776.903" y1="863.629" x2="644.028" y2="999.278" stroke="rgb(255,70,40)" stroke-width="1.4" opacity="0.85"/>
<line x1="644.028" y1="999.278" x2="617.136" y2="1039.34" stroke="rgb(255,70,40)" stroke-width="1.4" opacity="0.85"/>
<line x1="617.136" y1="1039.34" x2="512.688" y2="1025.49" stroke="rgb(255,70,40)" stroke-width="1.4" opacity="0.85"/>
<line x1="512.688" y1="1025.49" x2="438.301" y2="1007.44" stroke="rgb(255,70,40)" stroke-width="1.4" opacity="0.85"/>
<line x1="438.301" y1="1007.44" x2="305.775" y2="1041.07" stroke="rgb(255,70,40)" stroke-width="1.4" opacity="0.85"/>
<line x1="105.807" y1="177.63" x2="71.5496" y2="174.976" stroke="rgb(255,70,40)" stroke-width="1.4" opacity="0.85"/>
<line x1="71.5496" y1="174.976" x2="207.669" y2="453.109" stroke="rgb(255,70,40)" stroke-width="1.4" opacity="0.85"/>
<line x1="207.669" y1="453.109" x2="594.875" y2="498.014" stroke="rgb(255,70,40)" stroke-width="1.4" opacity="0.85"/>
<line x1="594.875" y1="498.014" x2="622.505" y2="547.982" stroke="rgb(255,70,40)" stroke-width="1.4" opacity="0.85"/>
<line x1="622.505" y1="547.982" x2="523.725" y2="328.174" stroke="rgb(255,70,40)" stroke-width="1.4" opacity="0.85"/>
<line x1="523.725" y1="328.174" x2="514.961" y2="189.029" stroke="rgb(255,70,40)" stroke-width="1.4" opacity="0.85"/>
<line x1="514.961" y1="189.029" x2="480.302" y2="167.986" stroke="rgb(255,70,40)" stroke-width="1.4" opacity="0.85"/>
<line x1="480.302" y1="167.986" x2="487.789" y2="72.6624" stroke="rgb(255,70,40)" stroke-width="1.4" opacity="0.85"/>
<circle cx="87.9095" cy="474.132" r="5" fill="rgb(47,118,194)" stroke="white" stroke-width="1.2"/>
<rect x="87.9595" y="427.148" width="10" height="10" fill="white" stroke="rgb(47,118,194)" stroke-width="2.2"/>
<line x1="87.9095" y1="474.132" x2="92.9595" y2="432.148" stroke="rgb(47,118,194)" stroke-width="0.8" stroke-dasharray="3,3" opacity="0.45"/>
<circle cx="299.218" cy="959.558" r="5" fill="rgb(62,114,183)" stroke="white" stroke-width="1.2"/>
<rect x="438.353" y="956.548" width="10" height="10" fill="white" stroke="rgb(62,114,183)" stroke-width="2.2"/>
<line x1="299.218" y1="959.558" x2="443.353" y2="961.548" stroke="rgb(62,114,183)" stroke-width="0.8" stroke-dasharray="3,3" opacity="0.45"/>
<circle cx="520.835" cy="906.444" r="5" fill="rgb(61,115,184)" stroke="white" stroke-width="1.2"/>
<rect x="500.187" y="1026.87" width="10" height="10" fill="white" stroke="rgb(61,115,184)" stroke-width="2.2"/>
<line x1="520.835" y1="906.444" x2="505.187" y2="1031.87" stroke="rgb(61,115,184)" stroke-width="0.8" stroke-dasharray="3,3" opacity="0.45"/>
<circle cx="70.2524" cy="381.751" r="5" fill="rgb(52,117,190)" stroke="white" stroke-width="1.2"/>
<rect x="161.02" y="390.535" width="10" height="10" fill="white" stroke="rgb(52,117,190)" stroke-width="2.2"/>
<line x1="70.2524" y1="381.751" x2="166.02" y2="395.535" stroke="rgb(52,117,190)" stroke-width="0.8" stroke-dasharray="3,3" opacity="0.45"/>
<circle cx="82.9587" cy="425.936" r="5" fill="rgb(80,110,169)" stroke="white" stroke-width="1.2"/>
<rect x="183.203" y="608.747" width="10" height="10" fill="white" stroke="rgb(80,110,169)" stroke-width="2.2"/>
<line x1="82.9587" y1="425.936" x2="188.203" y2="613.747" stroke="rgb(80,110,169)" stroke-width="0.8" stroke-dasharray="3,3" opacity="0.45"/>
<circle cx="78.0912" cy="439.313" r="5" fill="rgb(52,117,191)" stroke="white" stroke-width="1.2"/>
<rect x="169.674" y="641.351" width="10" height="10" fill="white" stroke="rgb(52,117,191)" stroke-width="2.2"/>
<line x1="78.0912" y1="439.313" x2="174.674" y2="646.351" stroke="rgb(52,117,191)" stroke-width="0.8" stroke-dasharray="3,3" opacity="0.45"/>
<circle cx="523.923" cy="949.102" r="5" fill="rgb(111,103,146)" stroke="white" stroke-width="1.2"/>
<rect x="292.443" y="890.755" width="10" height="10" fill="white" stroke="rgb(111,103,146)" stroke-width="2.2"/>
<line x1="523.923" y1="949.102" x2="297.443" y2="895.755" stroke="rgb(111,103,146)" stroke-width="0.8" stroke-dasharray="3,3" opacity="0.45"/>
<circle cx="595.256" cy="750.193" r="5" fill="rgb(72,112,175)" stroke="white" stroke-width="1.2"/>
<rect x="600.911" y="817.093" width="10" height="10" fill="white" stroke="rgb(72,112,175)" stroke-width="2.2"/>
<line x1="595.256" y1="750.193" x2="605.911" y2="822.093" stroke="rgb(72,112,175)" stroke-width="0.8" stroke-dasharray="3,3" opacity="0.45"/>
<circle cx="190.494" cy="970.99" r="5" fill="rgb(124,100,137)" stroke="white" stroke-width="1.2"/>
<rect x="346.396" y="880.26" width="10" height="10" fill="white" stroke="rgb(124,100,137)" stroke-width="2.2"/>
<line x1="190.494" y1="970.99" x2="351.396" y2="885.26" stroke="rgb(124,100,137)" stroke-width="0.8" stroke-dasharray="3,3" opacity="0.45"/>
<circle cx="235.43" cy="714.636" r="5" fill="rgb(90,108,162)" stroke="white" stroke-width="1.2"/>
<rect x="172.54" y="701.276" width="10" height="10" fill="white" stroke="rgb(90,108,162)" stroke-width="2.2"/>
<line x1="235.43" y1="714.636" x2="177.54" y2="706.276" stroke="rgb(90,108,162)" stroke-width="0.8" stroke-dasharray="3,3" opacity="0.45"/>
<circle cx="341.058" cy="983.495" r="5" fill="rgb(161,91,109)" stroke="white" stroke-width="1.2"/>
<rect x="443.119" y="786.809" width="10" height="10" fill="white" stroke="rgb(161,91,109)" stroke-width="2.2"/>
<line x1="341.058" y1="983.495" x2="448.119" y2="791.809" stroke="rgb(161,91,109)" stroke-width="0.8" stroke-dasharray="3,3" opacity="0.45"/>
<circle cx="186.539" cy="706.351" r="5" fill="rgb(102,105,153)" stroke="white" stroke-width="1.2"/>
<rect x="256.504" y="704.426" width="10" height="10" fill="white" stroke="rgb(102,105,153)" stroke-width="2.2"/>
<line x1="186.539" y1="706.351" x2="261.504" y2="709.426" stroke="rgb(102,105,153)" stroke-width="0.8" stroke-dasharray="3,3" opacity="0.45"/>
<circle cx="545.7" cy="823.119" r="5" fill="rgb(80,110,170)" stroke="white" stroke-width="1.2"/>
<rect x="687.185" y="523.832" width="10" height="10" fill="white" stroke="rgb(80,110,170)" stroke-width="2.2"/>
<line x1="545.7" y1="823.119" x2="692.185" y2="528.832" stroke="rgb(80,110,170)" stroke-width="0.8" stroke-dasharray="3,3" opacity="0.45"/>
<circle cx="174.418" cy="480.978" r="5" fill="rgb(120,101,140)" stroke="white" stroke-width="1.2"/>
<rect x="168.281" y="384.147" width="10" height="10" fill="white" stroke="rgb(120,101,140)" stroke-width="2.2"/>
<line x1="174.418" y1="480.978" x2="173.281" y2="389.147" stroke="rgb(120,101,140)" stroke-width="0.8" stroke-dasharray="3,3" opacity="0.45"/>
<circle cx="428.007" cy="524.446" r="5" fill="rgb(161,91,109)" stroke="white" stroke-width="1.2"/>
<rect x="451.466" y="635.672" width="10" height="10" fill="white" stroke="rgb(161,91,109)" stroke-width="2.2"/>
<line x1="428.007" y1="524.446" x2="456.466" y2="640.672" stroke="rgb(161,91,109)" stroke-width="0.8" stroke-dasharray="3,3" opacity="0.45"/>
<circle cx="320.802" cy="471.966" r="5" fill="rgb(136,97,128)" stroke="white" stroke-width="1.2"/>
<rect x="349.693" y="476.305" width="10" height="10" fill="white" stroke="rgb(136,97,128)" stroke-width="2.2"/>
<line x1="320.802" y1="471.966" x2="354.693" y2="481.305" stroke="rgb(136,97,128)" stroke-width="0.8" stroke-dasharray="3,3" opacity="0.45"/>
<circle cx="247.08" cy="719.017" r="5" fill="rgb(77,111,171)" stroke="white" stroke-width="1.2"/>
<rect x="101.993" y="446.04" width="10" height="10" fill="white" stroke="rgb(77,111,171)" stroke-width="2.2"/>
<line x1="247.08" y1="719.017" x2="106.993" y2="451.04" stroke="rgb(77,111,171)" stroke-width="0.8" stroke-dasharray="3,3" opacity="0.45"/>
<circle cx="193.606" cy="101.973" r="5" fill="rgb(128,99,134)" stroke="white" stroke-width="1.2"/>
<rect x="124.716" y="294.267" width="10" height="10" fill="white" stroke="rgb(128,99,134)" stroke-width="2.2"/>
<line x1="193.606" y1="101.973" x2="129.716" y2="299.267" stroke="rgb(128,99,134)" stroke-width="0.8" stroke-dasharray="3,3" opacity="0.45"/>
<circle cx="126.869" cy="147.218" r="5" fill="rgb(227,76,60)" stroke="white" stroke-width="1.2"/>
<rect x="101.747" y="326.137" width="10" height="10" fill="white" stroke="rgb(227,76,60)" stroke-width="2.2"/>
<line x1="126.869" y1="147.218" x2="106.747" y2="331.137" stroke="rgb(227,76,60)" stroke-width="0.8" stroke-dasharray="3,3" opacity="0.45"/>
<circle cx="354.693" cy="481.305" r="5" fill="rgb(165,90,106)" stroke="white" stroke-width="1.2"/>
<rect x="288.458" y="234.195" width="10" height="10" fill="white" stroke="rgb(165,90,106)" stroke-width="2.2"/>
<line x1="354.693" y1="481.305" x2="293.458" y2="239.195" stroke="rgb(165,90,106)" stroke-width="0.8" stroke-dasharray="3,3" opacity="0.45"/>
<circle cx="927.492" cy="491.008" r="5" fill="rgb(55,116,188)" stroke="white" stroke-width="1.2"/>
<rect x="941.794" y="280.067" width="10" height="10" fill="white" stroke="rgb(55,116,188)" stroke-width="2.2"/>
<line x1="927.492" y1="491.008" x2="946.794" y2="285.067" stroke="rgb(55,116,188)" stroke-width="0.8" stroke-dasharray="3,3" opacity="0.45"/>
<circle cx="849.422" cy="150.96" r="5" fill="rgb(66,113,180)" stroke="white" stroke-width="1.2"/>
<rect x="902.005" y="242.027" width="10" height="10" fill="white" stroke="rgb(66,113,180)" stroke-width="2.2"/>
<line x1="849.422" y1="150.96" x2="907.005" y2="247.027" stroke="rgb(66,113,180)" stroke-width="0.8" stroke-dasharray="3,3" opacity="0.45"/>
<circle cx="865.228" cy="571.753" r="5" fill="rgb(66,113,180)" stroke="white" stroke-width="1.2"/>
<rect x="650.965" y="570.407" width="10" height="10" fill="white" stroke="rgb(66,113,180)" stroke-width="2.2"/>
<line x1="865.228" y1="571.753" x2="655.965" y2="575.407" stroke="rgb(66,113,180)" stroke-width="0.8" stroke-dasharray="3,3" opacity="0.45"/>
<circle cx="947.539" cy="502.241" r="5" fill="rgb(67,113,179)" stroke="white" stroke-width="1.2"/>
<rect x="899.664" y="825.124" width="10" height="10" fill="white" stroke="rgb(67,113,179)" stroke-width="2.2"/>
<line x1="947.539" y1="502.241" x2="904.664" y2="830.124" stroke="rgb(67,113,179)" stroke-width="0.8" stroke-dasharray="3,3" opacity="0.45"/>
<circle cx="1028.16" cy="228.058" r="5" fill="rgb(72,112,175)" stroke="white" stroke-width="1.2"/>
<rect x="765.847" y="342.264" width="10" height="10" fill="white" stroke="rgb(72,112,175)" stroke-width="2.2"/>
<line x1="1028.16" y1="228.058" x2="770.847" y2="347.264" stroke="rgb(72,112,175)" stroke-width="0.8" stroke-dasharray="3,3" opacity="0.45"/>
<circle cx="105.287" cy="97.2807" r="5" fill="rgb(73,112,174)" stroke="white" stroke-width="1.2"/>
<rect x="157.578" y="53.9286" width="10" height="10" fill="white" stroke="rgb(73,112,174)" stroke-width="2.2"/>
<line x1="105.287" y1="97.2807" x2="162.578" y2="58.9286" stroke="rgb(73,112,174)" stroke-width="0.8" stroke-dasharray="3,3" opacity="0.45"/>
<circle cx="622.364" cy="879.172" r="5" fill="rgb(86,109,165)" stroke="white" stroke-width="1.2"/>
<rect x="584.373" y="580.697" width="10" height="10" fill="white" stroke="rgb(86,109,165)" stroke-width="2.2"/>
<line x1="622.364" y1="879.172" x2="589.373" y2="585.697" stroke="rgb(86,109,165)" stroke-width="0.8" stroke-dasharray="3,3" opacity="0.45"/>
<circle cx="1001.98" cy="505.742" r="5" fill="rgb(100,105,154)" stroke="white" stroke-width="1.2"/>
<rect x="884.7" y="462.281" width="10" height="10" fill="white" stroke="rgb(100,105,154)" stroke-width="2.2"/>
<line x1="1001.98" y1="505.742" x2="889.7" y2="467.281" stroke="rgb(100,105,154)" stroke-width="0.8" stroke-dasharray="3,3" opacity="0.45"/>
<circle cx="845.22" cy="1013.74" r="5" fill="rgb(102,105,153)" stroke="white" stroke-width="1.2"/>
<rect x="826.925" y="698.895" width="10" height="10" fill="white" stroke="rgb(102,105,153)" stroke-width="2.2"/>
<line x1="845.22" y1="1013.74" x2="831.925" y2="703.895" stroke="rgb(102,105,153)" stroke-width="0.8" stroke-dasharray="3,3" opacity="0.45"/>
<circle cx="692.32" cy="572.278" r="5" fill="rgb(106,104,150)" stroke="white" stroke-width="1.2"/>
<rect x="859.195" y="682.136" width="10" height="10" fill="white" stroke="rgb(106,104,150)" stroke-width="2.2"/>
<line x1="692.32" y1="572.278" x2="864.195" y2="687.136" stroke="rgb(106,104,150)" stroke-width="0.8" stroke-dasharray="3,3" opacity="0.45"/>
<circle cx="492.655" cy="168.869" r="5" fill="rgb(120,101,139)" stroke="white" stroke-width="1.2"/>
<rect x="375.23" y="297.185" width="10" height="10" fill="white" stroke="rgb(120,101,139)" stroke-width="2.2"/>
<line x1="492.655" y1="168.869" x2="380.23" y2="302.185" stroke="rgb(120,101,139)" stroke-width="0.8" stroke-dasharray="3,3" opacity="0.45"/>
<circle cx="804.346" cy="649.877" r="5" fill="rgb(122,100,138)" stroke="white" stroke-width="1.2"/>
<rect x="980.075" y="469.372" width="10" height="10" fill="white" stroke="rgb(122,100,138)" stroke-width="2.2"/>
<line x1="804.346" y1="649.877" x2="985.075" y2="474.372" stroke="rgb(122,100,138)" stroke-width="0.8" stroke-dasharray="3,3" opacity="0.45"/>
<circle cx="692.534" cy="358.954" r="5" fill="rgb(122,100,138)" stroke="white" stroke-width="1.2"/>
<rect x="829.327" y="264.8" width="10" height="10" fill="white" stroke="rgb(122,100,138)" stroke-width="2.2"/>
<line x1="692.534" y1="358.954" x2="834.327" y2="269.8" stroke="rgb(122,100,138)" stroke-width="0.8" stroke-dasharray="3,3" opacity="0.45"/>
<circle cx="880.017" cy="750.835" r="5" fill="rgb(123,100,138)" stroke="white" stroke-width="1.2"/>
<rect x="877.161" y="708.402" width="10" height="10" fill="white" stroke="rgb(123,100,138)" stroke-width="2.2"/>
<line x1="880.017" y1="750.835" x2="882.161" y2="713.402" stroke="rgb(123,100,138)" stroke-width="0.8" stroke-dasharray="3,3" opacity="0.45"/>
<circle cx="480.823" cy="169.988" r="5" fill="rgb(123,100,137)" stroke="white" stroke-width="1.2"/>
<rect x="300.238" y="141.953" width="10" height="10" fill="white" stroke="rgb(123,100,137)" stroke-width="2.2"/>
<line x1="480.823" y1="169.988" x2="305.238" y2="146.953" stroke="rgb(123,100,137)" stroke-width="0.8" stroke-dasharray="3,3" opacity="0.45"/>
<circle cx="105.251" cy="675.563" r="5" fill="rgb(129,99,133)" stroke="white" stroke-width="1.2"/>
<rect x="53.9286" y="910.963" width="10" height="10" fill="white" stroke="rgb(129,99,133)" stroke-width="2.2"/>
<line x1="105.251" y1="675.563" x2="58.9286" y2="915.963" stroke="rgb(129,99,133)" stroke-width="0.8" stroke-dasharray="3,3" opacity="0.45"/>
<circle cx="865.791" cy="678.383" r="5" fill="rgb(131,98,132)" stroke="white" stroke-width="1.2"/>
<rect x="945.921" y="460.311" width="10" height="10" fill="white" stroke="rgb(131,98,132)" stroke-width="2.2"/>
<line x1="865.791" y1="678.383" x2="950.921" y2="465.311" stroke="rgb(131,98,132)" stroke-width="0.8" stroke-dasharray="3,3" opacity="0.45"/>
<circle cx="380.607" cy="270.508" r="5" fill="rgb(137,97,127)" stroke="white" stroke-width="1.2"/>
<rect x="457.776" y="340.818" width="10" height="10" fill="white" stroke="rgb(137,97,127)" stroke-width="2.2"/>
<line x1="380.607" y1="270.508" x2="462.776" y2="345.818" stroke="rgb(137,97,127)" stroke-width="0.8" stroke-dasharray="3,3" opacity="0.45"/>
<circle cx="249.591" cy="152.441" r="5" fill="rgb(138,97,126)" stroke="white" stroke-width="1.2"/>
<rect x="843.92" y="227.815" width="10" height="10" fill="white" stroke="rgb(138,97,126)" stroke-width="2.2"/>
<line x1="249.591" y1="152.441" x2="848.92" y2="232.815" stroke="rgb(138,97,126)" stroke-width="0.8" stroke-dasharray="3,3" opacity="0.45"/>
<circle cx="819.762" cy="736.051" r="5" fill="rgb(139,96,125)" stroke="white" stroke-width="1.2"/>
<rect x="801.84" y="598.997" width="10" height="10" fill="white" stroke="rgb(139,96,125)" stroke-width="2.2"/>
<line x1="819.762" y1="736.051" x2="806.84" y2="603.997" stroke="rgb(139,96,125)" stroke-width="0.8" stroke-dasharray="3,3" opacity="0.45"/>
<circle cx="759.644" cy="817.596" r="5" fill="rgb(142,96,123)" stroke="white" stroke-width="1.2"/>
<rect x="682.703" y="695.399" width="10" height="10" fill="white" stroke="rgb(142,96,123)" stroke-width="2.2"/>
<line x1="759.644" y1="817.596" x2="687.703" y2="700.399" stroke="rgb(142,96,123)" stroke-width="0.8" stroke-dasharray="3,3" opacity="0.45"/>
<circle cx="125.213" cy="838.56" r="5" fill="rgb(144,95,122)" stroke="white" stroke-width="1.2"/>
<rect x="704.083" y="874.801" width="10" height="10" fill="white" stroke="rgb(144,95,122)" stroke-width="2.2"/>
<line x1="125.213" y1="838.56" x2="709.083" y2="879.801" stroke="rgb(144,95,122)" stroke-width="0.8" stroke-dasharray="3,3" opacity="0.45"/>
<circle cx="644.028" cy="999.278" r="5" fill="rgb(147,95,120)" stroke="white" stroke-width="1.2"/>
<rect x="612.136" y="1034.34" width="10" height="10" fill="white" stroke="rgb(147,95,120)" stroke-width="2.2"/>
<line x1="644.028" y1="999.278" x2="617.136" y2="1039.34" stroke="rgb(147,95,120)" stroke-width="0.8" stroke-dasharray="3,3" opacity="0.45"/>
<circle cx="913.11" cy="762.582" r="5" fill="rgb(150,94,118)" stroke="white" stroke-width="1.2"/>
<rect x="889.899" y="697.381" width="10" height="10" fill="white" stroke="rgb(150,94,118)" stroke-width="2.2"/>
<line x1="913.11" y1="762.582" x2="894.899" y2="702.381" stroke="rgb(150,94,118)" stroke-width="0.8" stroke-dasharray="3,3" opacity="0.45"/>
<circle cx="834.625" cy="892.103" r="5" fill="rgb(154,93,114)" stroke="white" stroke-width="1.2"/>
<rect x="915.193" y="619.372" width="10" height="10" fill="white" stroke="rgb(154,93,114)" stroke-width="2.2"/>
<line x1="834.625" y1="892.103" x2="920.193" y2="624.372" stroke="rgb(154,93,114)" stroke-width="0.8" stroke-dasharray="3,3" opacity="0.45"/>
<circle cx="457.69" cy="355.879" r="5" fill="rgb(160,92,110)" stroke="white" stroke-width="1.2"/>
<rect x="375.23" y="297.185" width="10" height="10" fill="white" stroke="rgb(160,92,110)" stroke-width="2.2"/>
<line x1="457.69" y1="355.879" x2="380.23" y2="302.185" stroke="rgb(160,92,110)" stroke-width="0.8" stroke-dasharray="3,3" opacity="0.45"/>
<circle cx="913.457" cy="313.149" r="5" fill="rgb(160,91,110)" stroke="white" stroke-width="1.2"/>
<rect x="830.097" y="75.3531" width="10" height="10" fill="white" stroke="rgb(160,91,110)" stroke-width="2.2"/>
<line x1="913.457" y1="313.149" x2="835.097" y2="80.3531" stroke="rgb(160,91,110)" stroke-width="0.8" stroke-dasharray="3,3" opacity="0.45"/>
<circle cx="435.895" cy="301.177" r="5" fill="rgb(162,91,108)" stroke="white" stroke-width="1.2"/>
<rect x="433.906" y="233.467" width="10" height="10" fill="white" stroke="rgb(162,91,108)" stroke-width="2.2"/>
<line x1="435.895" y1="301.177" x2="438.906" y2="238.467" stroke="rgb(162,91,108)" stroke-width="0.8" stroke-dasharray="3,3" opacity="0.45"/>
<circle cx="776.903" cy="863.629" r="5" fill="rgb(164,91,107)" stroke="white" stroke-width="1.2"/>
<rect x="507.688" y="1020.49" width="10" height="10" fill="white" stroke="rgb(164,91,107)" stroke-width="2.2"/>
<line x1="776.903" y1="863.629" x2="512.688" y2="1025.49" stroke="rgb(164,91,107)" stroke-width="0.8" stroke-dasharray="3,3" opacity="0.45"/>
<circle cx="457.69" cy="355.879" r="5" fill="rgb(164,91,107)" stroke="white" stroke-width="1.2"/>
<rect x="465.182" y="246.747" width="10" height="10" fill="white" stroke="rgb(164,91,107)" stroke-width="2.2"/>
<line x1="457.69" y1="355.879" x2="470.182" y2="251.747" stroke="rgb(164,91,107)" stroke-width="0.8" stroke-dasharray="3,3" opacity="0.45"/>
<circle cx="858.948" cy="872.777" r="5" fill="rgb(166,90,105)" stroke="white" stroke-width="1.2"/>
<rect x="902.032" y="825.287" width="10" height="10" fill="white" stroke="rgb(166,90,105)" stroke-width="2.2"/>
<line x1="858.948" y1="872.777" x2="907.032" y2="830.287" stroke="rgb(166,90,105)" stroke-width="0.8" stroke-dasharray="3,3" opacity="0.45"/>
<circle cx="864.32" cy="770.151" r="5" fill="rgb(173,88,100)" stroke="white" stroke-width="1.2"/>
<rect x="654.826" y="999.107" width="10" height="10" fill="white" stroke="rgb(173,88,100)" stroke-width="2.2"/>
<line x1="864.32" y1="770.151" x2="659.826" y2="1004.11" stroke="rgb(173,88,100)" stroke-width="0.8" stroke-dasharray="3,3" opacity="0.45"/>
<circle cx="618.847" cy="915.056" r="5" fill="rgb(174,88,100)" stroke="white" stroke-width="1.2"/>
<rect x="834.877" y="745.741" width="10" height="10" fill="white" stroke="rgb(174,88,100)" stroke-width="2.2"/>
<line x1="618.847" y1="915.056" x2="839.877" y2="750.741" stroke="rgb(174,88,100)" stroke-width="0.8" stroke-dasharray="3,3" opacity="0.45"/>
<circle cx="824.929" cy="817.257" r="5" fill="rgb(176,88,98)" stroke="white" stroke-width="1.2"/>
<rect x="1036.07" y="568.574" width="10" height="10" fill="white" stroke="rgb(176,88,98)" stroke-width="2.2"/>
<line x1="824.929" y1="817.257" x2="1041.07" y2="573.574" stroke="rgb(176,88,98)" stroke-width="0.8" stroke-dasharray="3,3" opacity="0.45"/>
<circle cx="523.725" cy="328.174" r="5" fill="rgb(176,88,98)" stroke="white" stroke-width="1.2"/>
<rect x="482.789" y="67.6624" width="10" height="10" fill="white" stroke="rgb(176,88,98)" stroke-width="2.2"/>
<line x1="523.725" y1="328.174" x2="487.789" y2="72.6624" stroke="rgb(176,88,98)" stroke-width="0.8" stroke-dasharray="3,3" opacity="0.45"/>
<circle cx="771.986" cy="431.191" r="5" fill="rgb(186,85,91)" stroke="white" stroke-width="1.2"/>
<rect x="853.099" y="373.149" width="10" height="10" fill="white" stroke="rgb(186,85,91)" stroke-width="2.2"/>
<line x1="771.986" y1="431.191" x2="858.099" y2="378.149" stroke="rgb(186,85,91)" stroke-width="0.8" stroke-dasharray="3,3" opacity="0.45"/>
<circle cx="514.961" cy="189.029" r="5" fill="rgb(195,83,84)" stroke="white" stroke-width="1.2"/>
<rect x="475.302" y="162.986" width="10" height="10" fill="white" stroke="rgb(195,83,84)" stroke-width="2.2"/>
<line x1="514.961" y1="189.029" x2="480.302" y2="167.986" stroke="rgb(195,83,84)" stroke-width="0.8" stroke-dasharray="3,3" opacity="0.45"/>
<circle cx="906.207" cy="633.056" r="5" fill="rgb(195,83,84)" stroke="white" stroke-width="1.2"/>
<rect x="788.247" y="806.868" width="10" height="10" fill="white" stroke="rgb(195,83,84)" stroke-width="2.2"/>
<line x1="906.207" y1="633.056" x2="793.247" y2="811.868" stroke="rgb(195,83,84)" stroke-width="0.8" stroke-dasharray="3,3" opacity="0.45"/>
<circle cx="797.608" cy="638.336" r="5" fill="rgb(196,83,83)" stroke="white" stroke-width="1.2"/>
<rect x="651.332" y="707.728" width="10" height="10" fill="white" stroke="rgb(196,83,83)" stroke-width="2.2"/>
<line x1="797.608" y1="638.336" x2="656.332" y2="712.728" stroke="rgb(196,83,83)" stroke-width="0.8" stroke-dasharray="3,3" opacity="0.45"/>
<circle cx="944.025" cy="299.034" r="5" fill="rgb(197,83,82)" stroke="white" stroke-width="1.2"/>
<rect x="1032.76" y="300.781" width="10" height="10" fill="white" stroke="rgb(197,83,82)" stroke-width="2.2"/>
<line x1="944.025" y1="299.034" x2="1037.76" y2="305.781" stroke="rgb(197,83,82)" stroke-width="0.8" stroke-dasharray="3,3" opacity="0.45"/>
<circle cx="71.5496" cy="174.976" r="5" fill="rgb(201,82,79)" stroke="white" stroke-width="1.2"/>
<rect x="202.669" y="448.109" width="10" height="10" fill="white" stroke="rgb(201,82,79)" stroke-width="2.2"/>
<line x1="71.5496" y1="174.976" x2="207.669" y2="453.109" stroke="rgb(201,82,79)" stroke-width="0.8" stroke-dasharray="3,3" opacity="0.45"/>
<circle cx="786.07" cy="578.299" r="5" fill="rgb(204,81,77)" stroke="white" stroke-width="1.2"/>
<rect x="872.091" y="280.087" width="10" height="10" fill="white" stroke="rgb(204,81,77)" stroke-width="2.2"/>
<line x1="786.07" y1="578.299" x2="877.091" y2="285.087" stroke="rgb(204,81,77)" stroke-width="0.8" stroke-dasharray="3,3" opacity="0.45"/>
<circle cx="594.875" cy="498.014" r="5" fill="rgb(204,81,77)" stroke="white" stroke-width="1.2"/>
<rect x="617.505" y="542.982" width="10" height="10" fill="white" stroke="rgb(204,81,77)" stroke-width="2.2"/>
<line x1="594.875" y1="498.014" x2="622.505" y2="547.982" stroke="rgb(204,81,77)" stroke-width="0.8" stroke-dasharray="3,3" opacity="0.45"/>
<circle cx="697.69" cy="574.02" r="5" fill="rgb(212,79,71)" stroke="white" stroke-width="1.2"/>
<rect x="844.402" y="500.068" width="10" height="10" fill="white" stroke="rgb(212,79,71)" stroke-width="2.2"/>
<line x1="697.69" y1="574.02" x2="849.402" y2="505.068" stroke="rgb(212,79,71)" stroke-width="0.8" stroke-dasharray="3,3" opacity="0.45"/>
<circle cx="993.525" cy="307.649" r="5" fill="rgb(217,78,67)" stroke="white" stroke-width="1.2"/>
<rect x="971.157" y="461.845" width="10" height="10" fill="white" stroke="rgb(217,78,67)" stroke-width="2.2"/>
<line x1="993.525" y1="307.649" x2="976.157" y2="466.845" stroke="rgb(217,78,67)" stroke-width="0.8" stroke-dasharray="3,3" opacity="0.45"/>
<circle cx="847.813" cy="1035.08" r="5" fill="rgb(219,78,66)" stroke="white" stroke-width="1.2"/>
<rect x="923.492" y="1031.46" width="10" height="10" fill="white" stroke="rgb(219,78,66)" stroke-width="2.2"/>
<line x1="847.813" y1="1035.08" x2="928.492" y2="1036.46" stroke="rgb(219,78,66)" stroke-width="0.8" stroke-dasharray="3,3" opacity="0.45"/>
<circle cx="173.03" cy="975.648" r="5" fill="rgb(225,76,61)" stroke="white" stroke-width="1.2"/>
<rect x="169.973" y="879.994" width="10" height="10" fill="white" stroke="rgb(225,76,61)" stroke-width="2.2"/>
<line x1="173.03" y1="975.648" x2="174.973" y2="884.994" stroke="rgb(225,76,61)" stroke-width="0.8" stroke-dasharray="3,3" opacity="0.45"/>
<circle cx="156.219" cy="895.701" r="5" fill="rgb(226,76,61)" stroke="white" stroke-width="1.2"/>
<rect x="185.845" y="985.366" width="10" height="10" fill="white" stroke="rgb(226,76,61)" stroke-width="2.2"/>
<line x1="156.219" y1="895.701" x2="190.845" y2="990.366" stroke="rgb(226,76,61)" stroke-width="0.8" stroke-dasharray="3,3" opacity="0.45"/>
<circle cx="817.37" cy="323.132" r="5" fill="rgb(228,76,59)" stroke="white" stroke-width="1.2"/>
<rect x="667.299" y="298.281" width="10" height="10" fill="white" stroke="rgb(228,76,59)" stroke-width="2.2"/>
<line x1="817.37" y1="323.132" x2="672.299" y2="303.281" stroke="rgb(228,76,59)" stroke-width="0.8" stroke-dasharray="3,3" opacity="0.45"/>
<circle cx="143.856" cy="945.891" r="5" fill="rgb(232,75,56)" stroke="white" stroke-width="1.2"/>
<rect x="199.76" y="886.798" width="10" height="10" fill="white" stroke="rgb(232,75,56)" stroke-width="2.2"/>
<line x1="143.856" y1="945.891" x2="204.76" y2="891.798" stroke="rgb(232,75,56)" stroke-width="0.8" stroke-dasharray="3,3" opacity="0.45"/>
<circle cx="882.52" cy="1037.68" r="5" fill="rgb(236,74,53)" stroke="white" stroke-width="1.2"/>
<rect x="845.931" y="1007.82" width="10" height="10" fill="white" stroke="rgb(236,74,53)" stroke-width="2.2"/>
<line x1="882.52" y1="1037.68" x2="850.931" y2="1012.82" stroke="rgb(236,74,53)" stroke-width="0.8" stroke-dasharray="3,3" opacity="0.45"/>
<circle cx="438.301" cy="1007.44" r="5" fill="rgb(237,74,52)" stroke="white" stroke-width="1.2"/>
<rect x="300.775" y="1036.07" width="10" height="10" fill="white" stroke="rgb(237,74,52)" stroke-width="2.2"/>
<line x1="438.301" y1="1007.44" x2="305.775" y2="1041.07" stroke="rgb(237,74,52)" stroke-width="0.8" stroke-dasharray="3,3" opacity="0.45"/>
<rect y="1100" width="1100" height="140" fill="#edf0f3"/>
<text x="12" y="1120" font-family="monospace" font-size="13" fill="#222">seed=2116335809  city=Kyoto_Small  mode=DoubleHorizon_MitrovicMinic  density=1.95  agents=1.02  (stress_heavy)</text>
<text x="12" y="1140" font-family="monospace" font-size="12" fill="#222">arrived=72 accepted=72 delivered=24 unfinished=48 dist=56324m agents=4</text>
<text x="12" y="1158" font-family="monospace" font-size="12" fill="#444">spatial: bbox=19.88km² hull=18.25km² meanPD=815m meanNN=223m</text>
<text x="12" y="1176" font-family="monospace" font-size="12" fill="#555">validity: pairing_viol=4 capacity_viol=0 wallclock=46166ms</text>
<rect x="12" y="1195" width="28" height="12" fill="rgb(40,120,200)"/>
<rect x="39" y="1195" width="28" height="12" fill="rgb(70,112,177)"/>
<rect x="67" y="1195" width="28" height="12" fill="rgb(101,105,154)"/>
<rect x="94" y="1195" width="28" height="12" fill="rgb(132,98,131)"/>
<rect x="122" y="1195" width="28" height="12" fill="rgb(162,91,108)"/>
<rect x="149" y="1195" width="28" height="12" fill="rgb(193,84,85)"/>
<rect x="177" y="1195" width="28" height="12" fill="rgb(224,77,62)"/>
<rect x="204" y="1195" width="28" height="12" fill="rgb(255,70,40)"/>
<text x="238" y="1205" font-family="monospace" font-size="11" fill="#444">time gradient: blue=t=0  red=t=3600</text>
</svg>
